<?xml version="1.0" encoding="utf-8"?>
<!-- Generator: Adobe Illustrator 23.0.6, SVG Export Plug-In . SVG Version: 6.00 Build 0)  -->
<svg version="1.1" id="Capa_1" xmlns="http://www.w3.org/2000/svg" xmlns:xlink="http://www.w3.org/1999/xlink" x="0px" y="0px"
	 viewBox="0 0 1080 1080" style="enable-background:new 0 0 1080 1080;" xml:space="preserve">
<style type="text/css">
	.st0{fill:#821119;}
	.st1{fill:#CF151D;}
	.st2{stroke:#000000;stroke-width:9.6345;stroke-miterlimit:10;}
	.st3{fill:none;stroke:#000000;stroke-width:9.6345;stroke-miterlimit:10;}
	.st4{fill:#E9B990;}
	.st5{fill:#FFFFFF;}
	.st6{fill:#42210B;}
	.st7{fill:none;stroke:#FFF800;stroke-width:9.6345;stroke-miterlimit:10;}
	.st8{fill:#1E0E05;}
	.st9{stroke:#000000;stroke-width:5.9146;stroke-miterlimit:10;}
	.st10{fill:#42210B;stroke:#000000;stroke-width:5.9146;stroke-miterlimit:10;}
</style>
<g>
	<g>
		<path d="M315.3,530.5l-31.8-0.2l-33.1-20.5l-14.6-26.3l10-32.8l37.5-28l180.3-64l1.2,38l-8.8,105.3l-54,10.2L315.3,530.5z
			 M287.4,501l24.9,0.2l84-17.8l32.2-6.1l6.4-77.5l-137.9,49l-26.3,19.6l-5.9,19.4v7.1L287.4,501z"/>
		<polyline class="st0" points="442.2,489.6 399,497.8 313.8,515.8 285.4,515.6 250.3,506.1 250.3,485.7 258.2,459.6 290.1,435.8 
			449.5,379.2 450,396.3 442.2,489.6 		"/>
		<path d="M250.4,452.3l9-15.9l79.9-31.2l52.2-23.2l72.2-22.5l1.3,56.4l-13.8,1.1c-66.5,5.3-192.3,77.1-193.6,77.8l-18.8,6.4
			L250.4,452.3z"/>
		<path class="st1" d="M449.5,379.2l-52.8,16.5l-51.7,23l-75.3,29.4l-6.4,11.5l-12.8,22.5c0,0,129.1-74.1,199.7-79.7L449.5,379.2z"
			/>
		<polygon points="791.8,383.4 719.7,376.3 672,376 600.7,379.7 525.6,385.8 471.6,388.8 433.9,398 440.9,257.8 445.8,230.1 
			457.1,208.8 483,174.2 510.3,151.6 536.8,140.1 560.4,126.5 592.4,116.3 622.8,112.8 652.8,112.8 695.2,119.6 725.8,128.2 
			770.4,150.4 797.3,179.5 816.1,218.9 825.8,278 831.4,326.4 836.2,401.6 		"/>
		<polygon class="st1" points="820.1,379.2 816.8,327.7 811.3,280 802,223.4 785,187.8 761.5,162.3 720.5,141.9 692.1,133.9 
			651.7,127.5 623.7,127.5 595.5,130.7 566.3,140 543.3,153.1 518,164.1 493.6,184.3 469.5,216.6 459.8,234.9 455.4,259.5 
			449.5,379.2 469.5,374.3 524.8,371.2 599.7,365.1 671.7,361.4 720.5,361.7 795.4,369 		"/>
		<g id="cara_completa_1_">
			<path class="st2" d="M292.6,530.5c-25.7,0-42.5-6.3-51.2-19.1c-5.8-8.5-10.2-23.8,1.8-47.6c8.1-16.3,22-29.4,38.8-36.9l0.8-0.3
				l152.4-57.6l4.3-98.1c2.8-46.9,26-87.2,66.9-116.5c27.4-19.6,54-28,59.8-29.7c57.1-24,123.8-9.4,169.8,7.1
				c37.5,13.4,66.2,44.2,76.8,82.2c18.8,67.3,21.7,160.8,21.8,164.8l-29.2,0.8c0-0.9-2.9-94-20.7-157.7c-8.1-28.9-30-52.3-58.5-62.6
				c-41.3-14.8-100.7-28.1-149.3-7.3l-1,0.4l-1,0.3c-0.2,0.1-26.1,7.2-52.1,26c-33.5,24.2-51.6,55.8-54,93.8l-5.1,117l-170,64.2
				c-10.5,4.8-19.1,13-24.2,23.1c-5,10-5.1,16-3.7,18.1c0.6,0.9,6.6,8.3,39.3,5.8l139-26.3l5.4,28.8l-140.6,26.5l-0.8,0.1
				C302.7,530.2,297.5,530.5,292.6,530.5z"/>
			<path class="st3" d="M820.1,379.2c0,0-2.7-95-21.3-161.3c-9.4-33.6-34.8-60.6-67.7-72.4c-41-14.7-106-30.1-160-7
				c0,0-110.7,29.5-116.9,133.2l-4.7,107.4l-161.4,61c-13.7,6.1-25,16.7-31.7,30.1c-10.9,21.7-13.8,50.2,50.7,44.9l139.8-26.4"/>
			<path d="M428.9,911.8l0.4-1.4c0.3-1.4,32.9-136.1,3.4-266h-28.5l-26.3-20.7l-10-20.9l1.7-24.7l3.1-19.9l16.5-16.7l33.8-9.8l8.3,7
				l0.6-47.2l0.3-1.5c0.3-1.3,7.3-32.5,19.5-64.2c18.5-48.1,39.1-71.5,62.8-71.5c0.6,0,1.3,0,1.9,0.1c11.2-1.3,83.6-9.3,157.4-9.3
				c69.1,0,119.5,6.9,150,20.6l8.1,3.7l12.3,235.2l-3.2,62.7l-9.9,60.3l-14.7,46.1l-12.9,22.6c-4.4,8.3-29.2,42.5-141.6,42.5
				c-19.5,0-41-1-63.8-3.1c3.4,18,12.6,48.5,37.4,83.5l22.4,31.5l-37.6-8.8c-0.4-0.1-36.8-8.4-79.5-8.4c-38.3,0-69.1,6.4-91.6,19.1
				l-23,13L428.9,911.8z"/>
			<path class="st4" d="M581.7,818.4c0,0-1.2,48.3,42.1,109.3c0,0-113.1-26.4-181.6,12.2l1.2-26.1c0,0,36.1-145.6,0.7-284.1h-10.3
				h-24.6l-19.6-15.4l-6.8-14.3l1.4-20.2l2.3-14.6l10.5-10.7l22.6-6.5l26,22l1-76.6c0,0,28.7-128.7,70.3-124.1
				c0,0,219.5-26.8,301,10l11.8,225.5l-3.1,61.1l-9.6,58.5L803.1,768l-12.3,21.5c0,0-23.6,48.7-200.1,30.9L581.7,818.4z"/>
			<g id="exterior_cara_1_">
				<path class="st2" d="M419.4,967.9l6-29.7c0.4-2.1,41.6-210.4,4.1-305.8l27.2-10.7c32.8,83.2,12.2,235.6,2,296.4
					c27.3-8.5,74.8-18.3,135.9-10.4c-13.4-22.3-28-54.6-27.6-89.5l29.3,0.3c-0.5,51.9,41.6,99.8,42,100.3l30.6,34.3l-44.8-10.4
					c-105.8-24.5-177,11-177.7,11.3L419.4,967.9z"/>
				<path class="st3" d="M443.1,627.1c39.6,100.5-3.4,314-3.4,314s75.4-38.5,187.7-12.6c0,0-46.3-52-45.7-110.1"/>
				<path class="st2" d="M664.2,839.8c-54.7,0-105-9.1-115.5-11.2l5.6-28.7c11.5,2.2,71.5,13.1,130.8,10.1
					c41.6-2.1,93.5-11.8,104.2-46.5c0.7-2.1,1.6-4.9,2.8-7.8c4.4-10.5,26.3-68.2,22.7-177.8l-8.9-190.7
					c-15.2-6.5-83.1-24.2-341.2,4.9c0.2,20.9-0.8,68.8-7.8,175.2l-29.2-1.9c10-153,7.5-182.5,7.3-184.4l1.4-12.4l11.5-4
					c319.4-37.1,375.4-7.7,384.6,6.6l2.1,3.3l9.4,202.3c3.7,113-18.2,174.3-25,190.4c-0.7,1.6-1.3,3.5-1.8,5
					c-12.6,40.8-56.6,63.4-130.7,67C679,839.7,671.5,839.8,664.2,839.8z M809.6,389.3L809.6,389.3L809.6,389.3z"/>
				<path class="st3" d="M551.4,814.3c47.3,9.1,226.9,34,251.7-46.4c0.7-2.2,1.4-4.3,2.3-6.4c5.6-13.1,27.5-72.6,23.9-184
					l-9.2-198.4c0,0-25.8-40-370.6,0c0,0,3.5,24.5-7.2,187.3"/>
				<path class="st2" d="M425,646.8c-3.3,0-6.6-0.2-9.7-0.6c-27.4-3.5-48.1-28.2-47.2-56.4c0.9-26.7,16.5-43.6,18.3-45.5l0.8-0.9
					l1-0.7c8.6-6.4,18.6-8.9,29-7.3c23.8,3.6,42,27.8,44,30.6l-23.6,17.3l11.8-8.6l-11.8,8.7c-4.1-5.6-15.6-17.6-24.8-18.9
					c-2.2-0.3-4.1,0-6,1.2c-2.2,2.8-9,12.3-9.4,25.3c-0.4,13.2,9,24.8,21.5,26.3c10.1,1.3,22.1-0.7,35.6-5.9l10.5,27.3
					C450.9,644,437.4,646.8,425,646.8z"/>
				<path class="st3" d="M449.5,574.6c0,0-28-38.3-52.5-20.1c0,0-13.5,14-14.2,35.8c-0.7,20.5,14,38.8,34.4,41.3
					c10.7,1.4,24.8,0.1,42.7-6.8"/>
			</g>
			<path d="M461.6,459.6l-19.8-4.3c-2.4-0.5-4.1-2.6-4.1-5v-66.7c0-2.8,2.3-5.1,5.1-5.1h0.6c3.1,0,5.5-2.8,5.1-5.9l-0.4-2.8
				c-0.4-2.8,1.6-5.4,4.4-5.8l36.6-5.1c2.4-0.3,4.8,1.1,5.6,3.4l8.2,23.1c1.3-0.8,2-1.5,2-1.5c-5,5.6-22.9,41.4-37.5,72.9
				C466.4,459,464,460.1,461.6,459.6z"/>
			<polygon points="571.2,591 541.2,569 530.8,533.5 529.8,506 531.3,481.5 539.7,458.5 556.1,437.2 566.3,427.7 579.2,419.9 
				594.5,414.6 616.5,410.6 644.7,425.9 655,458.5 663.7,485.3 658.1,536.9 651,556 632.1,586.9 613.3,589.4 600.2,594.8 			"/>
			<polygon class="st5" points="641,462.9 632.5,435.9 614,425.9 598.2,428.8 585.5,433.2 575.2,439.5 567,447.1 552.7,465.6 
				545.8,484.5 544.4,506.1 545.4,531.2 553.9,560.1 576.8,577 598.2,579.8 609.5,575.2 623.3,573.3 637.8,549.6 643.8,533.5 
				648.8,486.8 			"/>
			<polygon points="740.1,588 710.1,566 699.7,530.5 698.7,503 700.2,478.5 708.7,455.4 725,434.2 735.2,424.7 752.2,414.4 
				769.2,419.1 787.9,423.7 807.6,440.5 815.6,462 824.4,482.9 823.1,532.3 812.3,550.5 796.9,574.4 786.7,584.5 769.1,591.8 			"/>
			<polygon class="st5" points="802,467.4 795.2,449.1 781,437.1 765.5,433.2 754.4,430.2 744.1,436.4 735.9,444.1 721.6,462.6 
				714.7,481.5 713.3,503.1 714.3,528.2 722.8,557.1 745.8,573.9 767.1,576.8 778.4,572.1 785.4,565.1 799.8,542.8 808.6,528.1 
				809.7,485.7 			"/>
			<path class="st2" d="M693.7,666.3c-3.5,0-7.3-0.2-11.1-0.5l2.4-29.2c22.8,1.9,29.8-3.5,31.8-5.9c3.2-3.9,1.7-10.1,1.7-10.2
				l-0.3-1.2c-2-0.3-5.8,0.4-7.8,1.1l-9.9-27.5c3.2-1.1,19.6-6.4,32.9,1.2c4.9,2.8,11.1,8.3,13.3,19c1.1,4.4,4.6,21.6-7.2,36.2
				C730.3,660.6,714.9,666.3,693.7,666.3z"/>
			<path class="st3" d="M705.5,606.7c0,0,23.6-8.5,27,9.8c0,0,11.9,39.9-48.7,34.9"/>
			<polygon points="761.5,560.9 748.2,547.8 737.3,537.2 734.9,523.8 730.1,512.8 733.5,487.4 741.1,471.2 751.8,457.5 765.6,446.8 
				790.4,440.2 818.6,456.9 819.2,476.6 824.7,533.3 811,553.6 793.9,569.7 			"/>
			<polygon class="st6" points="804.2,465.4 788.2,455.9 772.2,460.2 762.3,467.9 753.7,478.9 747.7,491.6 745.2,510.7 749,519.6 
				750.9,530 758.5,537.3 769.1,547.8 789.8,553.4 799.8,544.1 809.7,529.4 804.6,477.5 			"/>
			<polygon points="583.8,562.5 573.4,544.7 568.4,534.6 562.5,521 561.2,509 564.3,485.9 571.9,469.7 582.6,456 596.4,445.3 
				619.6,439.1 650,449.6 660.5,456 658.3,547.6 642.2,564.4 617.5,569.8 			"/>
			<polygon class="st6" points="643.8,462.9 619,454.4 603,458.6 593,466.4 584.5,477.4 578.5,490 576,509.2 576.8,517.3 
				581.7,528.5 586.3,537.7 593.2,549.6 617.5,554.8 634.7,551 643.8,541.6 645.7,464.1 			"/>
			<path class="st2" d="M595.5,595.5c-39.3,0-66.8-35.7-66.8-86.8c0-44.9,32.6-95.1,76.3-95.1c21.3,0,37.7,10.8,47.2,31.2
				c6.7,14.3,10.1,33.9,10.1,58.2C662.3,549,639.4,595.5,595.5,595.5z"/>
			<path class="st3" d="M543.3,508.7c0,39,18.5,72.2,52.2,72.2c33.7,0,52.2-38.9,52.2-77.9s-9.1-74.8-42.7-74.8
				C571.3,428.2,543.3,469.6,543.3,508.7z"/>
			<path class="st2" d="M755.8,588c-33,0-57-36.3-57-86.3c0-46.6,27.5-83.1,62.7-83.1c33.5,0,59.9,34.6,62.7,82.3
				c2,34-10.4,54.7-21.2,66.1C790.4,580.3,773.2,588,755.8,588z"/>
			<path class="st3" d="M809.5,501.7c2.8,47.9-27.2,71.6-53.7,71.6s-42.4-33.8-42.4-71.6s21.5-68.5,48.1-68.5
				C788,433.2,807.3,463.9,809.5,501.7z"/>
			<path class="st2" d="M616.5,569.5c-12.4,0-22.7-3.9-28.6-7.5c-16-9.3-25.4-25.1-27.1-45.7c-1.9-22.2,6-44.2,21.8-60.2
				c13.3-13.4,26.7-16.3,35.6-16.4c0.1,0,0.2,0,0.3,0c20,0,34,13.2,35.5,14.7l-20.6,20.8l10.3-10.4l-10.2,10.5
				c-4.5-4.2-16.4-12.6-30.1,1.3c-9.7,9.9-14.7,23.4-13.5,37.1c0.9,11,5.1,18.5,12.9,23l0.5,0.3c1.5,0.9,13.5,7,27.9-0.6l13.5,25.9
				C634.9,567.6,625.2,569.5,616.5,569.5z"/>
			<path class="st3" d="M643.8,464.9c0,0-24.9-24.6-50.7,1.5c-12.7,12.8-19.2,30.7-17.7,48.6c1.1,12.4,5.9,26.2,20.1,34.4
				c0,0,19.2,12.1,42.5,0"/>
			<path class="st2" d="M794.3,567.3c-7.3,0-15.6-1.4-21.7-3.7c-19-7.2-33-24.8-36.8-46.1c-5.5-31.3,6.8-52.4,15.4-60.5
				c19.8-21,47.5-10.2,59.5-1.4l-17.3,23.6l8.6-11.8l-8.5,11.9c-0.6-0.4-14-9.8-21.2-2l-1,1c-1.4,1.5-10.5,12.1-6.7,34.1
				c1.9,11.1,9,20.3,18.3,23.8c2.7,1,8.1,2,12.4,1.8l1.3,29.2C795.8,567.3,795.1,567.3,794.3,567.3z"/>
			<path class="st3" d="M802,467.5c0,0-24.3-17.7-40.5,0c0,0-17,15-11.3,47.5c2.7,15.6,12.8,29.3,27.5,35c4.8,1.8,12.1,3,18.2,2.7"
				/>
			<polygon points="664.1,792.5 626.5,780.6 601.7,764.8 584,745.7 573.2,726.3 567,707.7 564.3,621.5 607,665.6 618,674.4 
				638.7,686.9 650.8,692.3 666.6,697.8 735.4,708.2 735.4,793.5 697.8,796.3 			"/>
			<polygon class="st5" points="720.8,720.8 720.8,779.9 698.1,781.6 667.2,778.1 632.7,767.2 611.1,753.5 595.9,737.1 586.6,720.4 
				581.6,705.1 580.1,658.9 597.2,676.4 609.7,686.4 631.9,699.9 645.4,706 663.1,712.1 			"/>
			<path class="st2" d="M709.3,792.3c-54.1,0-94-13.8-119.2-41.4c-37.8-41.3-26.4-97-25.9-99.3l6.3-29.5l19.3,23.2
				c59,71.1,161.1,55.1,162.1,55l4.9,28.8c-4.3,0.7-94.9,15.2-164.2-40.2c2,13.5,7.1,29.3,19.3,42.5c25.2,27.4,72.6,37.1,140.7,28.8
				l3.5,29.1C739.4,791.2,723.8,792.3,709.3,792.3z"/>
			<path class="st3" d="M754.3,714.7c0,0-110.5,18.7-175.8-60c0,0-31.2,145.2,175.8,120.1"/>
			<rect x="710.4" y="717.7" class="st2" width="29.3" height="59.2"/>
			<line class="st3" x1="725.1" y1="717.7" x2="725.1" y2="776.9"/>
			
				<rect x="645.4" y="681.8" transform="matrix(4.170126e-02 -0.9991 0.9991 4.170126e-02 -109.1016 1370.8076)" class="st2" width="29.3" height="120.9"/>
			<line class="st3" x1="720.5" y1="744.7" x2="599.7" y2="739.7"/>
			<path class="st2" d="M458,548.3l-29.3-0.8c3.9-144.1,60.7-183.8,63.1-185.4l16.3,24.3l0.2-0.1C507.9,386.7,461.5,421.4,458,548.3
				z"/>
			<path class="st3" d="M443.4,548c3.8-138.2,56.7-173.7,56.7-173.7"/>
			<path class="st2" d="M424.3,621.5c-0.6,0-1.3,0-1.9,0c-9.6-0.2-16.6-3.5-20.8-10l13.1-8.6c-0.4,0.1-0.8,0.1-1.1,0.2
				c-3.2,0.5-6.1,0.3-8.9-0.7c-2.4-0.8-4.5-2.1-6.6-3.9c-9.4-8.3-12-22.5-6.2-33.6c1.8-3.4,4.2-6,7.3-7.6c4.3-2.3,8.4-2,9.9-1.9
				c4.4,0.3,9.1,0.7,13.9,2.3c6.8,2.1,12.5,6,16.3,11.2l-4.8,3.5c0.5,0.3,1.1,0.5,1.5,0.8c5.3,2.9,9.2,7.8,11.7,14.5
				c1.4,3.9,2.3,8,2.7,12.1c0.1,1.7,0.6,7-2.5,12.2c-2.3,3.8-7,8.6-16.6,9.3C429,621.4,426.6,621.5,424.3,621.5z M425.2,599.6
				L425.2,599.6L425.2,599.6z M425,594.2c-0.8,0.7-1.6,1.7-2.4,2.8c-0.2,0.3-0.4,0.7-0.5,1l3.9-2.5
				C425.7,594.9,425.4,594.5,425,594.2z"/>
			<path class="st3" d="M427.4,577.4c-2.1-2.9-5.4-4.8-8.8-5.8c-3.4-1.1-7-1.4-10.6-1.6c-0.7,0-1.4-0.1-2,0.2
				c-0.6,0.3-0.9,0.9-1.2,1.4c-2.7,5.2-1.4,12.1,3,15.9c0.5,0.4,1,0.8,1.5,1c0.7,0.2,1.4,0.2,2.1,0.1c3-0.4,5.8-1.9,8.7-2.8
				s6.2-1.4,8.9,0.1c2.5,1.3,3.9,4,4.9,6.7c1,2.7,1.6,5.5,1.9,8.4c0.1,1.2,0.1,2.4-0.5,3.5c-1,1.7-3.2,2-5.1,2.2
				c-2.5,0.2-5,0.3-7.5,0.2c-3.3-0.1-7.1-0.6-8.9-3.4"/>
			<path class="st7" d="M422,614.4c0,0,6.2,41.8-16.7,41c0,0-28.1-7-15.8-37.6"/>
		</g>
		<polygon points="638.4,321.9 648.4,254 652.2,240.5 654.6,227.3 662.2,209 670.9,199.6 676,192.3 681.8,185.4 687.6,171.1 
			716.8,162.9 742.1,161.9 764.8,180.8 789.5,227.8 798,272.9 798,325.8 		"/>
		<polygon class="st8" points="783.4,310.8 783.4,274.3 775.5,232.6 753.2,190.2 737.1,176.8 719.1,177.4 698.5,183.2 694.5,193.1 
			687.6,201.3 682.3,208.8 674.7,217.1 668.7,231.5 666.4,243.8 662.7,257 655.3,307.7 		"/>
		<g id="ajustar_gorra_1_">
			<path class="st2" d="M800.4,353.2l-15.3-1.4c-1.2-0.1-121.7-10.7-234-0.9c-10,0.9-19.2-4.7-23.1-13.9c-3.8-9.2-1.3-19.7,6.3-26.2
				c10.2-8.6,32.4-19.6,107.5-18.1c7.6-72.5,34-106,55.5-121.4c21.5-15.4,51.2-11.1,67.4,10c40.3,52.2,36.4,152.4,36.3,156.7
				L800.4,353.2z M671.2,293.5l99.3,2.4c-2.5-30.8-9.7-71.7-29-96.7c-6.5-8.5-18.5-10.3-27.2-4.1C698,206.8,677.9,233.4,671.2,293.5
				z"/>
			<path class="st3" d="M783.4,310.8l-128.1-3.1c-73.4-2.7-101.4,5.7-111.5,14.3c-6.1,5.2-2,15.1,6,14.4c115-10,236.6,0.9,236.6,0.9
				s4.3-98.5-33.2-147.1c-11.3-14.7-32.2-17.8-47.3-7c-20.4,14.6-45.6,48-50.7,124.5"/>
		</g>
		<path class="st9" d="M761.5,319.9l-117.4-2.3l2.9-26.9l0.4-1.3c2.2-7.1,22.3-69.9,57-90.2c6-3.5,10.7-7.8,13.9-12.8
			c4.8-7.5,10-18.9,7.1-30.1l25.9-12.4c2.4,3.2,58.7,80.2,44.4,164.5l-2.2,12.5L761.5,319.9z"/>
		<path class="st10" d="M661.4,293.7c0,0,19.7-63.9,50.4-81.9c7.5-4.4,14.1-10.2,18.8-17.5c6.7-10.4,13.1-25.6,8.9-41.7
			c0,0,55.2,74.2,41.7,153.3l-19.3-0.6l-101.6-2L661.4,293.7z"/>
		<g>
			<path d="M736.2,302.9l-21.3-20c41.1-43.7,18.8-75.9,18.6-76.3c3.8,5.3,12.9,7.7,19.8,2.8c7.1-5,7.7-14.3,3.9-19.8l-24,16.8
				c-5.4-7.7-2.8-16.1,2.5-20.3l20,1.5c3,3.3,12,17.3,13.2,37.9C770,243.7,765.3,272,736.2,302.9z"/>
			<path class="st5" d="M736.2,302.9l-11.3-8.3c-4-3-8.2-6-12.3-9.3l-2.3-1.8l2.1-3l6-8.3l2.6-4.4c0.8-1.5,1.8-2.8,2.5-4.3l2.2-4.5
				l1.1-2.2l0.9-2.3c0.6-1.5,1.2-3,1.7-4.5l1.2-4.6c1.5-6.1,1.9-12.3,1.2-18.2l-0.3-2.2c-0.1-0.7-0.3-1.4-0.5-2.1
				c-0.3-1.4-0.8-2.8-1.2-4.2c-0.2-0.7-0.5-1.3-0.8-2s-0.5-1.3-0.9-1.9c-0.3-0.6-0.6-1.2-0.9-1.8c-0.2-0.3-0.3-0.6-0.5-0.8l-0.2-0.4
				c-0.1-0.2,0,0-0.1-0.1l-21.9-46.6l36.1,36.4c0.5,0.5,2,1.3,3.5,1.4c1.5,0.1,2.8-0.3,3.8-1.2c1.1-0.9,1.7-2,1.9-3.3
				c0.2-1.3-0.2-2.8-0.7-3.2l13.6,2.4c-8,5.6-15.9,11.3-23.9,16.8l-8.2,5.6l-5.5-8c-1.6-2.4-3-5.1-3.8-8.1c-0.8-3-1.1-6.2-0.7-9.4
				c0.8-6.3,4.1-12,9-16l3-2.4l3.7,0.3c6.7,0.6,13.3,1.2,20,1.9l4,0.4l2.1,2.5l1,1.2l0.8,1.1c0.5,0.7,1,1.4,1.4,2.1
				c0.9,1.4,1.6,2.7,2.3,4.1c1.4,2.7,2.6,5.5,3.6,8.3c2.1,5.6,3.5,11.3,4.2,17.1c1.6,11.6,0.6,23.4-2.6,34.3c-3.1,11-8.3,21-14.7,30
				C752.1,288.4,744.5,296.2,736.2,302.9z M736.2,302.9c6.2-8.8,11.7-17.8,16-27.2c4.4-9.3,7.4-19.1,8.8-28.9
				c0.7-4.9,1-9.8,0.8-14.6c-0.2-4.8-0.8-9.6-1.9-14.2c-1.1-4.6-2.5-9.2-4.5-13.4c-0.9-2.1-2-4.2-3.2-6.1c-0.6-1-1.2-1.9-1.8-2.8
				c-0.3-0.4-0.6-0.8-0.9-1.2l-0.4-0.5c-0.1-0.1-0.2-0.2-0.3-0.3l6,2.9c-6.7-0.3-13.4-0.7-20-1.1l6.8-2.1c-0.9,0.8-1.6,2.2-1.7,3.3
				c-0.1,1.2,0.2,2.4,1.2,3.9l-13.7-2.4c7.9-5.7,16-11.1,24-16.7l8.2-5.7l5.4,8.1c3.8,5.7,4.6,12.1,3.5,18c-1.2,6-4.8,11.6-9.8,14.9
				c-4.9,3.5-11.4,4.9-17.2,4c-5.8-0.9-11.4-3.7-15.3-9.2l14.2-10.2c0.2,0.3,0.5,0.8,0.7,1.1l0.4,0.8c0.3,0.5,0.5,1,0.8,1.5
				c0.5,1,0.9,2,1.3,3c0.4,1,0.8,2,1.1,3s0.7,2,0.9,3c0.5,2,0.9,4,1.2,6.1c0.1,1,0.3,2,0.4,3.1l0.1,3.1c0.3,8.1-1.4,16.1-4,23.4
				l-2.2,5.4c-0.9,1.7-1.8,3.4-2.7,5l-1.4,2.5c-0.5,0.8-1.1,1.5-1.6,2.3l-3.2,4.6c-2.3,3-4.7,5.7-7.2,8.4l-7.8,7.6l-0.2-4.8
				c3,3.4,5.8,7,9,10.8C729.3,294.9,732.6,298.9,736.2,302.9z"/>
		</g>
		<g>
			<path class="st6" d="M745.2,198c-4.2-6,33.9,37.9-19.7,94.9"/>
			<path class="st5" d="M745.2,198l-0.4-0.2c-0.1-0.1-0.1-0.1-0.2-0.2c0-0.1-0.1,0.1,0.1-0.3c0.5-0.2,0.3,0,0.4,0l0.1,0l0.1,0.1
				c0.3,0.2,0.5,0.3,0.8,0.5c0.5,0.3,1,0.7,1.5,1.1c1,0.8,1.9,1.6,2.8,2.4c1.8,1.7,3.3,3.6,4.7,5.7c2.8,4.1,4.9,8.6,6.3,13.4
				c2.8,9.6,2.8,20.1,0.3,29.8c-2.5,9.7-7.3,18.5-13.4,25.9c-6.3,7.3-13.8,13.3-22.8,16.9c3-9.3,6.6-17.2,9.6-25
				c3-7.8,5.6-15.2,7.5-22.6c1.9-7.4,3.1-14.9,3.5-22.8c0.2-3.9,0.2-8-0.1-12.3c-0.1-2.1-0.3-4.3-0.5-6.5c-0.1-1.1-0.3-2.2-0.4-3.4
				c-0.1-0.6-0.2-1.1-0.3-1.7l-0.2-0.8l0-0.1c0,0,0,0,0,0c0.2,0-0.1,0.1,0.4,0c0.2-0.4,0-0.2,0.1-0.3c0,0,0,0.1,0,0.2L745.2,198z"/>
		</g>
		<circle cx="765.6" cy="476.8" r="18.7"/>
		<circle class="st5" cx="765.6" cy="476.8" r="4.1"/>
		<path d="M606.7,484c-10.3,0-18.7-8.4-18.7-18.7s8.4-18.7,18.7-18.7c10.3,0,18.7,8.4,18.7,18.7C625.5,475.6,617,484,606.7,484z"/>
		<circle class="st5" cx="606.7" cy="465.2" r="4.1"/>
		<g>
			<path d="M591.2,796.5c-0.9-61.2-1.6-61.9-62.8-62.8c61.2-0.9,61.9-1.6,62.8-62.8c0.9,61.2,1.6,61.9,62.8,62.8
				C592.8,734.6,592.1,735.3,591.2,796.5z"/>
		</g>
		<g>
			<ellipse class="st5" cx="591.2" cy="733.7" rx="34.3" ry="34.3"/>
		</g>
		<path d="M668.3,339.2c-10.6,0-19.3-8.6-19.3-19.3s8.6-19.3,19.3-19.3s19.3,8.6,19.3,19.3S679,339.2,668.3,339.2z"/>
		<circle class="st0" cx="668.3" cy="320" r="4.6"/>
		<circle cx="707" cy="321.3" r="19.3"/>
		<circle class="st0" cx="707" cy="321.3" r="4.6"/>
		<path d="M742,340.5c-10.6,0-19.3-8.6-19.3-19.3S731.4,302,742,302s19.3,8.6,19.3,19.3S752.6,340.5,742,340.5z"/>
		<circle class="st0" cx="742" cy="321.3" r="4.6"/>
		<circle cx="772.8" cy="321.3" r="19.3"/>
		<circle class="st0" cx="772.8" cy="321.3" r="4.6"/>
	</g>
	<g>
		<polyline class="st0" points="442.2,489.6 399,497.8 313.8,515.8 285.4,515.6 250.3,506.1 250.3,485.7 258.2,459.6 290.1,435.8 
			449.5,379.2 450,396.3 442.2,489.6 		"/>
		<path class="st1" d="M449.5,379.2l-52.8,16.5l-51.7,23l-75.3,29.4l-6.4,11.5l-12.8,22.5c0,0,129.1-74.1,199.7-79.7L449.5,379.2z"
			/>
		<polygon class="st1" points="820.1,379.2 816.8,327.7 811.3,280 802,223.4 785,187.8 761.5,162.3 720.5,141.9 692.1,133.9 
			651.7,127.5 623.7,127.5 595.5,130.7 566.3,140 543.3,153.1 518,164.1 493.6,184.3 469.5,216.6 459.8,234.9 455.4,259.5 
			449.5,379.2 469.5,374.3 524.8,371.2 599.7,365.1 671.7,361.4 720.5,361.7 795.4,369 		"/>
		<g id="cara_completa">
			<path class="st3" d="M820.1,379.2c0,0-2.7-95-21.3-161.3c-9.4-33.6-34.8-60.6-67.7-72.4c-41-14.7-106-30.1-160-7
				c0,0-110.7,29.5-116.9,133.2l-4.7,107.4l-161.4,61c-13.7,6.1-25,16.7-31.7,30.1c-10.9,21.7-13.8,50.2,50.7,44.9l139.8-26.4"/>
			<path class="st4" d="M581.7,818.4c0,0-1.2,48.3,42.1,109.3c0,0-113.1-26.4-181.6,12.2l1.2-26.1c0,0,36.1-145.6,0.7-284.1h-10.3
				h-24.6l-19.6-15.4l-6.8-14.3l1.4-20.2l2.3-14.6l10.5-10.7l22.6-6.5l26,22l1-76.6c0,0,28.7-128.7,70.3-124.1
				c0,0,219.5-26.8,301,10l11.8,225.5l-3.1,61.1l-9.6,58.5L803.1,768l-12.3,21.5c0,0-23.6,48.7-200.1,30.9L581.7,818.4z"/>
			<g id="exterior_cara">
				<path class="st3" d="M443.1,627.1c39.6,100.5-3.4,314-3.4,314s75.4-38.5,187.7-12.6c0,0-46.3-52-45.7-110.1"/>
				<path class="st3" d="M551.4,814.3c47.3,9.1,226.9,34,251.7-46.4c0.7-2.2,1.4-4.3,2.3-6.4c5.6-13.1,27.5-72.6,23.9-184
					l-9.2-198.4c0,0-25.8-40-370.6,0c0,0,3.5,24.5-7.2,187.3"/>
				<path class="st3" d="M449.5,574.6c0,0-28-38.3-52.5-20.1c0,0-13.5,14-14.2,35.8c-0.7,20.5,14,38.8,34.4,41.3
					c10.7,1.4,24.8,0.1,42.7-6.8"/>
			</g>
			<path class="st6" d="M459.9,383.6l-7.5,75.2c0,0,35.3-76.9,43-81.6L459.9,383.6"/>
			<polygon class="st5" points="641,462.9 632.5,435.9 614,425.9 598.2,428.8 585.5,433.2 575.2,439.5 567,447.1 552.7,465.6 
				545.8,484.5 544.4,506.1 545.4,531.2 553.9,560.1 576.8,577 598.2,579.8 609.5,575.2 623.3,573.3 637.8,549.6 643.8,533.5 
				648.8,486.8 			"/>
			<polygon class="st5" points="802,467.4 795.2,449.1 781,437.1 765.5,433.2 754.4,430.2 744.1,436.4 735.9,444.1 721.6,462.6 
				714.7,481.5 713.3,503.1 714.3,528.2 722.8,557.1 745.8,573.9 767.1,576.8 778.4,572.1 785.4,565.1 799.8,542.8 808.6,528.1 
				809.7,485.7 			"/>
			<path class="st3" d="M705.5,606.7c0,0,23.6-8.5,27,9.8c0,0,11.9,39.9-48.7,34.9"/>
			<polygon class="st6" points="804.2,465.4 788.2,455.9 772.2,460.2 762.3,467.9 753.7,478.9 747.7,491.6 745.2,510.7 749,519.6 
				750.9,530 758.5,537.3 769.1,547.8 789.8,553.4 799.8,544.1 809.7,529.4 804.6,477.5 			"/>
			<polygon class="st6" points="643.8,462.9 619,454.4 603,458.6 593,466.4 584.5,477.4 578.5,490 576,509.2 576.8,517.3 
				581.7,528.5 586.3,537.7 593.2,549.6 617.5,554.8 634.7,551 643.8,541.6 645.7,464.1 			"/>
			<path class="st3" d="M543.3,508.7c0,39,18.5,72.2,52.2,72.2c33.7,0,52.2-38.9,52.2-77.9s-9.1-74.8-42.7-74.8
				C571.3,428.2,543.3,469.6,543.3,508.7z"/>
			<path class="st3" d="M809.5,501.7c2.8,47.9-27.2,71.6-53.7,71.6s-42.4-33.8-42.4-71.6s21.5-68.5,48.1-68.5
				C788,433.2,807.3,463.9,809.5,501.7z"/>
			<path class="st3" d="M643.8,464.9c0,0-24.9-24.6-50.7,1.5c-12.7,12.8-19.2,30.7-17.7,48.6c1.1,12.4,5.9,26.2,20.1,34.4
				c0,0,19.2,12.1,42.5,0"/>
			<path class="st3" d="M802,467.5c0,0-24.3-17.7-40.5,0c0,0-17,15-11.3,47.5c2.7,15.6,12.8,29.3,27.5,35c4.8,1.8,12.1,3,18.2,2.7"
				/>
			<polygon class="st5" points="720.8,720.8 720.8,779.9 698.1,781.6 667.2,778.1 632.7,767.2 611.1,753.5 595.9,737.1 586.6,720.4 
				581.6,705.1 580.1,658.9 597.2,676.4 609.7,686.4 631.9,699.9 645.4,706 663.1,712.1 			"/>
			<path class="st3" d="M754.3,714.7c0,0-110.5,18.7-175.8-60c0,0-31.2,145.2,175.8,120.1"/>
			<line class="st3" x1="725.1" y1="717.7" x2="725.1" y2="776.9"/>
			<line class="st3" x1="720.5" y1="744.7" x2="599.7" y2="739.7"/>
			<path class="st3" d="M443.4,548c3.8-138.2,56.7-173.7,56.7-173.7"/>
			<path class="st3" d="M427.4,577.4c-2.1-2.9-5.4-4.8-8.8-5.8c-3.4-1.1-7-1.4-10.6-1.6c-0.7,0-1.4-0.1-2,0.2
				c-0.6,0.3-0.9,0.9-1.2,1.4c-2.7,5.2-1.4,12.1,3,15.9c0.5,0.4,1,0.8,1.5,1c0.7,0.2,1.4,0.2,2.1,0.1c3-0.4,5.8-1.9,8.7-2.8
				s6.2-1.4,8.9,0.1c2.5,1.3,3.9,4,4.9,6.7c1,2.7,1.6,5.5,1.9,8.4c0.1,1.2,0.1,2.4-0.5,3.5c-1,1.7-3.2,2-5.1,2.2
				c-2.5,0.2-5,0.3-7.5,0.2c-3.3-0.1-7.1-0.6-8.9-3.4"/>
			<path class="st7" d="M422,614.4c0,0,6.2,41.8-16.7,41c0,0-28.1-7-15.8-37.6"/>
		</g>
		<polygon class="st8" points="783.4,310.8 783.4,274.3 775.5,232.6 753.2,190.2 737.1,176.8 719.1,177.4 698.5,183.2 694.5,193.1 
			687.6,201.3 682.3,208.8 674.7,217.1 668.7,231.5 666.4,243.8 662.7,257 655.3,307.7 		"/>
		<g id="ajustar_gorra">
			<path class="st3" d="M783.4,310.8l-128.1-3.1c-73.4-2.7-101.4,5.7-111.5,14.3c-6.1,5.2-2,15.1,6,14.4c115-10,236.6,0.9,236.6,0.9
				s4.3-98.5-33.2-147.1c-11.3-14.7-32.2-17.8-47.3-7c-20.4,14.6-45.6,48-50.7,124.5"/>
		</g>
		<path class="st10" d="M661.4,293.7c0,0,19.7-63.9,50.4-81.9c7.5-4.4,14.1-10.2,18.8-17.5c6.7-10.4,13.1-25.6,8.9-41.7
			c0,0,55.2,74.2,41.7,153.3l-19.3-0.6l-101.6-2L661.4,293.7z"/>
		<g>
			<path class="st6" d="M745.2,198c-4.2-6,33.9,37.9-19.7,94.9"/>
			<path class="st5" d="M745.2,198l-0.4-0.2c-0.1-0.1-0.1-0.1-0.2-0.2c0-0.1-0.1,0.1,0.1-0.3c0.5-0.2,0.3,0,0.4,0l0.1,0l0.1,0.1
				c0.3,0.2,0.5,0.3,0.8,0.5c0.5,0.3,1,0.7,1.5,1.1c1,0.8,1.9,1.6,2.8,2.4c1.8,1.7,3.3,3.6,4.7,5.7c2.8,4.1,4.9,8.6,6.3,13.4
				c2.8,9.6,2.8,20.1,0.3,29.8c-2.5,9.7-7.3,18.5-13.4,25.9c-6.3,7.3-13.8,13.3-22.8,16.9c3-9.3,6.6-17.2,9.6-25
				c3-7.8,5.6-15.2,7.5-22.6c1.9-7.4,3.1-14.9,3.5-22.8c0.2-3.9,0.2-8-0.1-12.3c-0.1-2.1-0.3-4.3-0.5-6.5c-0.1-1.1-0.3-2.2-0.4-3.4
				c-0.1-0.6-0.2-1.1-0.3-1.7l-0.2-0.8l0-0.1c0,0,0,0,0,0c0.2,0-0.1,0.1,0.4,0c0.2-0.4,0-0.2,0.1-0.3c0,0,0,0.1,0,0.2L745.2,198z"/>
		</g>
		<circle class="st5" cx="765.6" cy="476.8" r="4.1"/>
		<circle class="st5" cx="606.7" cy="465.2" r="4.1"/>
		<circle class="st0" cx="668.3" cy="320" r="4.6"/>
		<circle class="st0" cx="707" cy="321.3" r="4.6"/>
		<circle class="st0" cx="742" cy="321.3" r="4.6"/>
		<circle class="st0" cx="772.8" cy="321.3" r="4.6"/>
	</g>
</g>
</svg>
