<svg id="Capa_1" data-name="Capa 1" xmlns="http://www.w3.org/2000/svg" viewBox="0 0 1080 1080"><defs><style>.cls-1{fill:#cf151d;}.cls-2{fill:#821119;}.cls-10,.cls-11,.cls-3,.cls-4{stroke:#000;}.cls-10,.cls-11,.cls-3,.cls-4,.cls-8{stroke-miterlimit:10;}.cls-3,.cls-4,.cls-8{stroke-width:9.63px;}.cls-4,.cls-8{fill:none;}.cls-5{fill:#e9b990;}.cls-6{fill:#fff;}.cls-11,.cls-7{fill:#42210b;}.cls-8{stroke:#fff800;}.cls-9{fill:#1e0e05;}.cls-10,.cls-11{stroke-width:5.91px;}</style></defs><title>logo axelux marca de agua</title><ellipse class="cls-1" cx="555.45" cy="592.76" rx="387.3" ry="490.99" transform="translate(-191.25 272.88) rotate(-23.67)"/><path d="M793,474.32,730.44,462.5l-10.19-122,1.39-44,208.94,74.17L974,403.05l11.59,38L968.7,471.54,930.35,495.3l-36.86.23Zm159-20v-8.23l-6.84-22.48L914.7,400.85,754.9,344.07l7.41,89.81L799.63,441,897,461.58l28.86-.24Z"/><polyline class="cls-2" points="746.44 448.13 737.4 340.01 737.98 320.2 922.7 385.79 959.66 413.37 968.82 443.61 968.82 467.25 928.14 478.26 895.23 478.5 796.5 457.64 746.44 448.13"/><path d="M982.15,461.58l-21.79-7.42c-1.51-.81-147.29-84-224.35-90.16l-16-1.27,1.51-65.36,83.67,26.07,60.49,26.89,92.59,36.15,10.43,18.43Z"/><path class="cls-1" d="M737.17,347.08c81.81,6.49,231.42,92.36,231.42,92.36l-14.84-26.07L946.34,400,859.08,366l-59.92-26.65L738,320.2Z"/><polygon points="289.85 346.15 295.41 259.01 301.9 202.92 313.14 134.43 334.93 88.78 366.1 55.05 417.79 29.33 453.25 19.36 502.38 11.48 537.15 11.48 572.38 15.54 609.46 27.36 636.81 43.12 667.52 56.44 699.16 82.63 729.17 122.73 742.26 147.41 747.94 179.51 756.05 341.98 712.37 331.32 649.79 327.85 562.76 320.78 480.13 316.49 424.86 316.84 341.3 325.06 289.85 346.15"/><polygon class="cls-1" points="337.13 308.38 423.93 299.92 480.48 299.57 563.92 303.86 650.72 310.93 714.8 314.52 737.98 320.2 731.14 181.48 726.04 152.98 714.8 131.77 686.87 94.34 658.6 70.93 629.28 58.18 602.62 43 568.78 32.22 536.11 28.52 503.66 28.52 456.84 35.93 423.93 45.2 376.42 68.84 349.18 98.39 329.48 139.65 318.71 205.24 312.33 260.52 308.51 320.2 337.13 308.38"/><g id="cara_completa" data-name="cara completa"><path class="cls-3" d="M901.84,494.72l-.93-.12L738,463.89l6.25-33.37L905.31,461c37.9,2.89,44.85-5.68,45.55-6.72,1.62-2.44,1.5-9.39-4.29-21a58.85,58.85,0,0,0-28-26.77l-197-74.4-5.91-135.58c-2.78-44-23.76-80.66-62.58-108.7a211.39,211.39,0,0,0-60.37-30.13l-1.16-.35-1.16-.46c-56.32-24.11-125.16-8.69-173,8.46a108.73,108.73,0,0,0-67.79,72.54c-20.63,73.82-24,181.71-24,182.75l-33.83-.93c.11-4.63,3.47-113,25.26-191A142,142,0,0,1,406,33.5c53.3-19.12,130.6-36,196.77-8.23A244.67,244.67,0,0,1,672,59.69c47.4,34,74.28,80.65,77.53,135l5,113.69,176.61,66.75.92.34a92.28,92.28,0,0,1,45,42.77c13.9,27.58,8.8,45.31,2.08,55.16-10.08,14.83-29.55,22.13-59.33,22.13C914.12,495.53,908.1,495.18,901.84,494.72Z"/><path class="cls-4" d="M741,447.09l162,30.59c74.74,6.15,71.38-26.88,58.75-52A75.15,75.15,0,0,0,925,390.77L738,320.08l-5.45-124.46C725.35,75.45,597.06,41.26,597.06,41.26c-62.58-26.77-137.9-8.92-185.41,8.11a125.4,125.4,0,0,0-78.46,83.91c-21.55,76.83-24.68,186.92-24.68,186.92"/><path d="M765,999.74l-26.66-15.06c-26.07-14.72-61.76-22.14-106.15-22.14a459.29,459.29,0,0,0-92.12,9.74l-43.58,10.2,26-36.51c28.74-40.56,39.4-75.9,43.34-96.76-26.42,2.43-51.33,3.59-73.93,3.59-130.26,0-159-39.63-164.09-49.25L312.8,777.36l-17-53.42-11.47-69.88-3.71-72.66,14.25-272.56,9.39-4.29c35.35-15.87,93.75-23.87,173.83-23.87,85.52,0,169.42,9.27,182.4,10.78a13.59,13.59,0,0,1,2.2-.12c27.47,0,51.34,27.12,72.78,82.86A589,589,0,0,1,758,448.6l.35,1.74.7,54.69,9.62-8.11,39.17,11.36L827,527.63l3.59,23.06,2,28.62L821,603.53l-30.48,24h-33c-34.19,150.54,3.59,306.63,3.94,308.26l.46,1.62Z"/><path class="cls-5" d="M574.35,831.48c-204.54,20.63-231.89-35.81-231.89-35.81l-14.25-24.91L312.1,720.23,301,652.44l-3.6-70.81,13.68-261.32c94.44-42.64,348.81-11.59,348.81-11.59,48.21-5.33,81.47,143.82,81.47,143.82l1.16,88.76,30.13-25.49,26.19,7.53L811,535.74l2.67,16.92,1.62,23.41-7.88,16.57-22.71,17.85H744.23c-41,160.5.82,329.23.82,329.23L746.44,970C667.06,925.23,536,955.82,536,955.82c50.18-70.69,48.79-126.66,48.79-126.66Z"/><g id="exterior_cara" data-name="exterior cara"><path class="cls-3" d="M741.57,986.3c-.81-.35-83.32-41.49-205.93-13.09l-51.91,12,35.46-39.75c.46-.58,49.25-56.09,48.67-116.23l33.95-.35c.47,40.44-16.45,77.87-32,103.72,70.8-9.16,125.85,2.2,157.49,12.05-11.82-70.46-35.7-247.07,2.31-343.48l31.52,12.4C717.7,724.17,765.44,965.56,765.91,968l7,34.42Z"/><path class="cls-4" d="M584.78,829.16c.69,67.33-53,127.59-53,127.59,130.14-30,217.51,14.6,217.51,14.6s-49.83-247.41-3.94-363.88"/><path class="cls-3" d="M463.33,853.27c-85.87-4.18-136.86-30.37-151.46-77.65-.58-1.74-1.28-3.94-2.09-5.79-7.88-18.66-33.26-89.7-29-220.65l10.9-234.43,2.43-3.82c10.66-16.58,75.56-50.65,445.69-7.65l13.33,4.63,1.62,14.37c-.23,2.2-3.13,36.39,8.46,213.69l-33.84,2.21c-8.11-123.31-9.27-178.81-9-203-299.1-33.73-377.78-13.21-395.4-5.68l-10.31,221c-4.17,127,21.21,193.87,26.31,206,1.39,3.36,2.43,6.61,3.24,9C356.6,805.75,416.74,817,465,819.43c68.72,3.47,138.25-9.16,151.58-11.71L623,841c-12.17,2.44-70.46,13-133.85,13C480.71,854,472,853.85,463.33,853.27ZM320.68,331.9Z"/><path class="cls-4" d="M746.32,537.13c-12.4-188.66-8.34-217-8.34-217-399.57-46.35-429.47,0-429.47,0L297.85,550c-4.17,129.09,21.2,198,27.69,213.22a78.84,78.84,0,0,1,2.67,7.42C357,863.81,565.08,835,619.89,824.41"/><path class="cls-3" d="M720,620.92l12.17-31.64c15.65,6,29.55,8.34,41.26,6.84,14.48-1.74,25.38-15.18,24.91-30.48-.46-15.06-8.34-26.07-10.89-29.32a9.77,9.77,0,0,0-7-1.39c-10.66,1.51-24,15.41-28.74,21.9l-13.68-10.08,13.68,10-27.35-20.05c2.32-3.25,23.41-31.29,51-35.46a43.86,43.86,0,0,1,33.6,8.46l1.16.81.93,1c2.09,2.2,20.16,21.79,21.21,52.73,1,32.68-22.95,61.3-54.7,65.36a89.4,89.4,0,0,1-11.24.69C752,630.3,736.35,627.06,720,620.92Z"/><path class="cls-4" d="M725.92,604.81c20.75,8,37.09,9.5,49.49,7.88,23.64-2.9,40.67-24.1,39.86-47.86a67.4,67.4,0,0,0-16.45-41.49c-28.4-21.09-60.84,23.3-60.84,23.3"/></g><path d="M717.23,410.12c-16.92-36.5-37.66-78-43.45-84.48a13.88,13.88,0,0,0,2.31,1.74l9.51-26.77a6.09,6.09,0,0,1,6.49-3.94l42.41,5.91a6,6,0,0,1,5.1,6.72l-.46,3.25a6,6,0,0,0,5.91,6.84h.69a5.93,5.93,0,0,1,5.91,5.91v77.29a6,6,0,0,1-4.75,5.8l-22.95,5A5.93,5.93,0,0,1,717.23,410.12Z"/><polygon points="563.34 570.04 548.16 563.79 526.37 560.89 504.47 525.08 496.24 502.95 489.75 443.15 499.83 412.09 511.77 374.31 544.45 356.58 569.94 361.22 587.67 367.36 602.62 376.4 614.44 387.41 633.45 412.09 643.18 438.75 644.92 467.14 643.76 499.01 631.71 540.15 596.95 565.64 563.34 570.04"/><polygon class="cls-6" points="507.02 444.89 512.81 499.01 519.77 517.66 536.57 545.13 552.56 547.33 565.66 552.66 590.46 549.42 616.99 529.83 626.84 496.34 628 467.25 626.38 442.22 618.38 420.32 601.81 398.88 592.31 390.07 580.37 382.77 565.66 377.68 547.35 374.31 525.91 385.9 516.06 417.19 507.02 444.89"/><polygon points="367.61 566.57 347.21 558.11 335.39 546.4 317.55 518.71 305.03 497.62 303.53 440.37 313.72 416.15 322.99 391.23 345.82 371.77 367.49 366.44 387.19 360.99 406.89 372.92 418.71 383.93 437.6 408.5 447.45 435.27 449.19 463.66 448.03 495.53 435.98 536.67 401.22 562.16 367.61 566.57"/><polygon class="cls-6" points="320.56 443.61 321.84 492.75 332.03 509.78 348.72 535.63 356.83 543.74 369.93 549.18 394.61 545.82 421.26 526.36 431.12 492.87 432.27 463.78 430.65 438.75 422.65 416.85 406.08 395.41 396.58 386.48 384.64 379.3 371.78 382.77 353.82 387.29 337.36 401.2 329.48 422.41 320.56 443.61"/><path class="cls-3" d="M401.91,633.2c-13.67-16.92-9.62-36.85-8.34-42,2.55-12.4,9.73-18.77,15.41-22,15.41-8.8,34.42-2.66,38.13-1.39l-11.48,31.87c-2.31-.81-6.72-1.62-9-1.27l-.35,1.39c0,.11-1.74,7.3,2,11.82,2.32,2.78,10.43,9,36.85,6.83l2.78,33.84c-4.4.35-8.81.58-12.86.58C430.42,652.9,412.57,646.3,401.91,633.2Z"/><path class="cls-4" d="M466.46,635.63c-70.23,5.8-56.44-40.44-56.44-40.44,3.94-21.21,31.29-11.36,31.29-11.36"/><polygon points="338.87 540.96 319.05 522.3 303.18 498.77 309.55 433.07 310.25 410.24 342.93 390.89 371.67 398.54 387.66 410.93 400.06 426.81 408.87 445.58 412.81 475.02 407.24 487.77 404.46 503.29 391.83 515.58 376.42 530.76 338.87 540.96"/><polygon class="cls-7" points="326.47 434.11 320.56 494.25 332.03 511.29 343.62 522.07 367.61 515.58 379.89 503.41 388.7 494.95 390.9 482.9 395.31 472.58 392.41 450.45 385.46 435.73 375.49 422.99 364.02 414.06 345.48 409.08 326.93 420.09 326.47 434.11"/><polygon points="543.29 541.07 514.67 534.82 496.01 515.35 493.46 409.2 505.63 401.78 540.86 389.61 567.74 396.8 583.74 409.2 596.13 425.07 604.94 443.85 608.53 470.62 607.03 484.52 600.19 500.28 594.4 511.99 582.34 532.61 543.29 541.07"/><polygon class="cls-7" points="510.61 418.58 512.81 508.39 523.36 519.29 543.29 523.69 571.45 517.66 579.45 503.87 584.78 493.21 590.46 480.23 591.38 470.85 588.49 448.6 581.53 434 571.68 421.25 560.09 412.21 541.55 407.34 512.81 417.19 510.61 418.58"/><path class="cls-3" d="M491.37,463.66c0-28.16,3.94-50.87,11.71-67.44,11-23.64,30-36.16,54.7-36.16,50.64,0,88.42,58.18,88.42,110.21,0,59.21-31.87,100.59-77.41,100.59C517.91,570.86,491.37,517,491.37,463.66Z"/><path class="cls-4" d="M557.78,377c-38.94,0-49.49,41.49-49.49,86.68s21.44,90.28,60.5,90.28,60.49-38.48,60.49-83.67S596.83,377,557.78,377Z"/><path class="cls-3" d="M328.33,537.83c-12.52-13.21-26.89-37.2-24.57-76.6C307,406,337.6,365.86,376.42,365.86c40.79,0,72.66,42.29,72.66,96.3,0,57.94-27.82,100-66.06,100C362.86,562.16,342.93,553.24,328.33,537.83Z"/><path class="cls-4" d="M376.42,382.77c30.82,0,55.74,35.58,55.74,79.39s-18.43,83-49.14,83-65.47-27.47-62.23-83C323.34,418.35,345.71,382.77,376.42,382.77Z"/><path class="cls-3" d="M511.77,532.38l15.64-30c16.69,8.8,30.6,1.74,32.34.69l.58-.35c9-5.21,13.9-13.9,14.94-26.65a54.63,54.63,0,0,0-15.64-43c-15.88-16.11-29.67-6.38-34.88-1.51l-11.82-12.17,11.94,12.06L501,407.34c1.74-1.74,18-17,41.14-17h.35c10.31.11,25.84,3.47,41.25,19A88.52,88.52,0,0,1,609,479.07c-2,23.88-12.87,42.19-31.41,53-6.83,4.18-18.77,8.7-33.14,8.7A68.15,68.15,0,0,1,511.77,532.38Z"/><path class="cls-4" d="M519.53,517.43c27,14,49.26,0,49.26,0,16.45-9.5,22-25.49,23.29-39.86a71.78,71.78,0,0,0-20.51-56.32c-29.9-30.25-58.76-1.74-58.76-1.74"/><path class="cls-3" d="M335.74,538.06l1.51-33.84a43.1,43.1,0,0,0,14.37-2.08c10.78-4.06,19-14.72,21.2-27.58,4.41-25.5-6.14-37.78-7.76-39.52l-1.16-1.16c-8.34-9-23.87,1.85-24.57,2.32l-9.85-13.79,10,13.67L319.4,408.73c13.91-10.2,46-22.71,69,1.63,10,9.38,24.22,33.83,17.85,70.11-4.4,24.68-20.63,45.07-42.65,53.42a76.4,76.4,0,0,1-25.14,4.29A19.88,19.88,0,0,1,335.74,538.06Z"/><path class="cls-4" d="M336.55,521.26a58.33,58.33,0,0,0,21.09-3.13c17-6.61,28.74-22.48,31.87-40.56,6.61-37.66-13.09-55.05-13.09-55.05-18.78-20.51-46.94,0-46.94,0"/><polygon points="450.24 803.55 406.66 800.31 406.66 701.46 486.39 689.4 504.7 683.03 518.72 676.77 542.71 662.29 555.46 652.09 604.94 600.99 601.81 700.88 594.63 722.43 582.11 744.91 561.6 767.05 532.86 785.36 489.29 799.15 450.24 803.55"/><polygon class="cls-6" points="490.45 705.98 510.96 698.91 526.6 691.84 552.33 676.19 566.82 664.61 586.63 644.33 584.89 697.87 579.1 715.6 568.32 734.95 550.71 753.95 525.68 769.83 485.7 782.46 449.89 786.52 423.58 784.55 423.58 716.06 490.45 705.98"/><path class="cls-3" d="M382.67,795.44l4.06-33.72c78.92,9.62,133.85-1.63,163-33.38,14.14-15.29,20.05-33.6,22.37-49.25-80.31,64.2-185.3,47.4-190.29,46.59l5.68-33.38c1.16.12,119.48,18.66,187.85-63.73l22.37-26.89,7.3,34.19c.58,2.66,13.79,67.21-30,115.07-29.2,32-75.44,48-138.13,48A484.41,484.41,0,0,1,382.67,795.44Z"/><path class="cls-4" d="M384.76,778.64c239.88,29.08,203.73-139.18,203.73-139.18C512.81,730.66,384.76,709,384.76,709"/><rect class="cls-3" x="401.68" y="712.47" width="33.95" height="68.6"/><line class="cls-4" x1="418.6" y1="781.07" x2="418.6" y2="712.47"/><rect class="cls-3" x="423.98" y="724" width="140.1" height="33.95" transform="translate(-30.47 21.25) rotate(-2.39)"/><line class="cls-4" x1="563.92" y1="737.96" x2="423.93" y2="743.75"/><path class="cls-3" d="M669.84,328.42l.23.12L689,300.38c2.78,1.85,68.6,47.86,73.12,214.85l-34,.93C724.07,369.1,670.3,328.89,669.84,328.42Z"/><path class="cls-4" d="M679.34,314.52s61.3,41.14,65.71,201.29"/><path class="cls-3" d="M759.07,600.75c-11.13-.81-16.57-6.37-19.24-10.77-3.59-6-3-12.17-2.9-14.14a58.89,58.89,0,0,1,3.13-14c2.9-7.77,7.42-13.45,13.56-16.81.46-.34,1.16-.58,1.74-.92L749.8,540a36.36,36.36,0,0,1,18.89-13,63,63,0,0,1,16.1-2.66,20.63,20.63,0,0,1,11.48,2.2,20.09,20.09,0,0,1,8.46,8.8,32.55,32.55,0,0,1-7.19,38.94,22.57,22.57,0,0,1-7.65,4.52,20.45,20.45,0,0,1-10.31.81c-.35-.11-.81-.11-1.28-.23l15.19,10c-4.87,7.53-13,11.35-24.11,11.59h-2.2C764.51,601,761.73,600.87,759.07,600.75Zm7.07-25.14Zm-.93-4.75,4.52,2.89a5.71,5.71,0,0,0-.58-1.16,20.26,20.26,0,0,0-2.78-3.24A4.05,4.05,0,0,0,765.21,570.86Z"/><path class="cls-4" d="M779.35,580.13c-2.09,3.24-6.49,3.82-10.32,3.94a72.12,72.12,0,0,1-8.69-.24c-2.2-.23-4.75-.58-5.91-2.55a7,7,0,0,1-.58-4,40.15,40.15,0,0,1,2.2-9.74c1.16-3.12,2.79-6.25,5.68-7.76,3.13-1.74,7-1.16,10.32-.12s6.6,2.79,10.08,3.25a5.55,5.55,0,0,0,2.43-.12,7.32,7.32,0,0,0,1.74-1.16,15.54,15.54,0,0,0,3.48-18.42,3.74,3.74,0,0,0-1.39-1.62,5.11,5.11,0,0,0-2.32-.24,48.58,48.58,0,0,0-12.28,1.86,19.14,19.14,0,0,0-10.2,6.72"/><path class="cls-8" d="M807.51,596.7c14.25,35.46-18.31,43.57-18.31,43.57-26.54.93-19.35-47.51-19.35-47.51"/></g><polygon points="334.12 258.31 334.12 197.01 343.97 144.75 372.59 90.28 398.9 68.38 428.22 69.54 462.06 79.04 468.78 95.61 475.5 103.61 481.41 112.07 491.49 122.96 500.3 144.17 503.08 159.47 507.48 175.11 519.07 253.79 334.12 258.31"/><polygon class="cls-9" points="499.49 237.34 490.91 178.59 486.62 163.29 483.96 149.03 477 132.35 468.2 122.73 462.06 114.04 454.06 104.54 449.42 93.06 425.55 86.34 404.69 85.65 386.04 101.17 360.19 150.31 351.04 198.63 351.04 240.93 499.49 237.34"/><g id="ajustar_gorra" data-name="ajustar gorra"><path class="cls-3" d="M330.64,272.45c-.11-5-4.63-121.1,42.07-181.59a56.64,56.64,0,0,1,78.1-11.59c24.92,17.85,55.51,56.67,64.32,140.69,87-1.74,112.76,11,124.58,21a26.42,26.42,0,0,1-19.47,46.47c-130.14-11.36-269.78.93-271.17,1l-17.73,1.63Zm100.47-165.6a22.9,22.9,0,0,0-31.52,4.75c-22.36,29-30.71,76.37-33.6,112.07l115.07-2.79C473.3,151.24,450,120.41,431.11,106.85Z"/><path class="cls-4" d="M499.6,237.34C493.69,148.69,464.49,110,440.85,93.06A39.85,39.85,0,0,0,386,101.18c-43.46,56.31-38.48,170.46-38.48,170.46s140.92-12.63,274.18-1a9.47,9.47,0,0,0,7-16.69c-11.71-10-44.15-19.7-129.21-16.57L351,240.93"/></g><path class="cls-10" d="M339.33,252.64l-2.55-14.49c-16.57-97.69,48.68-186.92,51.46-190.63l30,14.37c-3.36,13,2.67,26.19,8.23,34.88a46.39,46.39,0,0,0,16.11,14.83c40.21,23.53,63.5,96.3,66.05,104.53l.46,1.51,3.37,31.17-136,2.67Z"/><path class="cls-11" d="M493.69,232.24,376,234.56l-22.36.69C337.94,143.59,401.91,57.6,401.91,57.6c-4.87,18.66,2.55,36.27,10.32,48.33A64,64,0,0,0,434,126.21c35.58,20.86,58.41,94.91,58.41,94.91Z"/><path d="M367.84,142.08c1.39-23.87,11.82-40.09,15.3-43.92l23.18-1.74c6.14,4.87,9.15,14.61,2.89,23.53L381.4,100.48a16.88,16.88,0,0,0,4.52,22.94c8,5.68,18.54,2.9,22.94-3.24-.23.46-26.07,37.78,21.56,88.42l-24.68,23.18C372,196,366.57,163.17,367.84,142.08Z"/><path class="cls-6" d="M380,204.54a113.05,113.05,0,0,1-17-34.76A95.71,95.71,0,0,1,360,130a85.59,85.59,0,0,1,4.87-19.82A78,78,0,0,1,369,100.6a47.46,47.46,0,0,1,2.67-4.76,28.49,28.49,0,0,1,1.62-2.43l.93-1.27,1.15-1.39,2.44-2.9,4.63-.47c7.77-.81,15.42-1.5,23.18-2.2l4.29-.34,3.47,2.78A28,28,0,0,1,423,117.05a31.67,31.67,0,0,1-4.4,9.39l-6.37,9.27-9.51-6.49c-9.27-6.37-18.42-13-27.69-19.47L390.79,107c-.58.46-1.05,2.2-.81,3.71a5.9,5.9,0,0,0,2.2,3.82,5.78,5.78,0,0,0,4.4,1.39,7.34,7.34,0,0,0,4.06-1.62l41.83-42.18-25.38,54c-.11.12,0-.12-.11.12l-.24.46a6.31,6.31,0,0,0-.57.93l-1.05,2.08a13.5,13.5,0,0,0-1,2.2,19.36,19.36,0,0,0-.93,2.32c-.46,1.62-1,3.25-1.39,4.87a19.46,19.46,0,0,0-.58,2.43l-.35,2.55a59.34,59.34,0,0,0,1.4,21.09l1.39,5.33c.58,1.74,1.27,3.48,2,5.22l1,2.66,1.27,2.55,2.55,5.22c.81,1.74,2,3.24,2.9,5l3,5.1,7,9.62,2.43,3.48-2.67,2.08c-4.75,3.83-9.61,7.3-14.25,10.78l-13.09,9.62A133.87,133.87,0,0,1,380,204.54Zm37.55,13.79c3.7-4.4,6.95-8.57,10.43-12.51l-.24,5.56-9-8.81c-2.9-3.12-5.68-6.25-8.35-9.73l-3.71-5.33c-.58-.93-1.27-1.74-1.85-2.67L403.19,182c-1.05-1.86-2.09-3.83-3.13-5.8l-2.55-6.26a73.54,73.54,0,0,1-4.64-27.11l.12-3.59c.11-1.28.35-2.44.46-3.6a70.14,70.14,0,0,1,1.39-7.07c.23-1.15.7-2.31,1.05-3.47s.81-2.32,1.27-3.48.93-2.32,1.51-3.48c.34-.58.58-1.15.92-1.73l.47-.93c.23-.35.58-.93.81-1.28L417.32,126a26.06,26.06,0,0,1-17.73,10.67A27.8,27.8,0,0,1,379.66,132a27.37,27.37,0,0,1-11.35-17.27,27.82,27.82,0,0,1,4.05-20.86l6.26-9.38,9.5,6.6c9.27,6.49,18.66,12.75,27.81,19.36l-15.87,2.78a6.84,6.84,0,0,0,1.39-4.52,6.5,6.5,0,0,0-2-3.83l7.88,2.44c-7.65.46-15.41.92-23.18,1.27l6.95-3.36-.34.35-.47.58-1,1.39c-.69,1-1.39,2.08-2.09,3.24a51.58,51.58,0,0,0-3.7,7.07,79.23,79.23,0,0,0-5.22,15.53,86.7,86.7,0,0,0-2.2,16.46,93,93,0,0,0,.93,16.92,117.83,117.83,0,0,0,10.19,33.49,198.92,198.92,0,0,0,18.55,31.52C409.91,227.14,413.73,222.51,417.56,218.33Z"/><path class="cls-7" d="M418.14,220.19c-62.12-66.06-18-116.93-22.83-110"/><path class="cls-6" d="M395.42,110v-.23c.12.12-.11-.12.12.35.58.11.23,0,.46,0h0v.11l-.23.93c-.12.7-.23,1.28-.35,2-.11,1.39-.35,2.67-.46,3.94-.23,2.55-.46,5.1-.58,7.53a117.72,117.72,0,0,0-.12,14.26,132.9,132.9,0,0,0,4.06,26.42A238,238,0,0,0,407,191.45c3.48,9,7.65,18.19,11.13,29-10.43-4.17-19.13-11.12-26.43-19.58a78.2,78.2,0,0,1-15.52-30,65.88,65.88,0,0,1,.34-34.53,54.82,54.82,0,0,1,7.3-15.53,37.9,37.9,0,0,1,5.45-6.61c1-.92,2.09-1.85,3.25-2.78a16.24,16.24,0,0,1,1.73-1.27c.35-.23.58-.35.93-.58l.12-.12h.11c.12,0-.11-.23.47,0,.23.47.11.23.11.35l-.23.23-.46.23Z"/><circle cx="371.67" cy="433.3" r="21.67"/><circle class="cls-6" cx="371.67" cy="433.3" r="4.75"/><path d="M534.14,420a21.67,21.67,0,1,1,21.67,21.67A21.71,21.71,0,0,1,534.14,420Z"/><circle class="cls-6" cx="555.81" cy="419.86" r="4.75"/><path d="M501,731c70.92-1,71.74-1.86,72.78-72.78,1,70.92,1.85,71.73,72.77,72.78-70.92,1-71.73,1.85-72.77,72.77C572.73,732.86,571.91,732.05,501,731Z"/><circle class="cls-6" cx="573.77" cy="731.01" r="39.75"/><path d="M462.06,251.48a22.37,22.37,0,1,1,22.36,22.36A22.3,22.3,0,0,1,462.06,251.48Z"/><circle class="cls-2" cx="484.42" cy="251.59" r="5.33"/><circle cx="439.57" cy="253.1" r="22.37"/><circle class="cls-2" cx="439.57" cy="253.1" r="5.33"/><path d="M376.65,253.1A22.37,22.37,0,1,1,399,275.35,22.38,22.38,0,0,1,376.65,253.1Z"/><circle class="cls-2" cx="399.01" cy="253.1" r="5.33"/><circle cx="363.32" cy="253.1" r="22.37"/><circle class="cls-2" cx="363.32" cy="253.1" r="5.33"/><polyline class="cls-2" points="746.44 448.13 737.4 340.01 737.98 320.2 922.7 385.79 959.66 413.37 968.82 443.61 968.82 467.25 928.14 478.26 895.23 478.5 796.5 457.64 746.44 448.13"/><path class="cls-1" d="M737.17,347.08c81.81,6.49,231.42,92.36,231.42,92.36l-14.84-26.07L946.34,400,859.08,366l-59.92-26.65L738,320.2Z"/><polygon class="cls-1" points="337.13 308.38 423.93 299.92 480.48 299.57 563.92 303.86 650.72 310.93 714.8 314.52 737.98 320.2 731.14 181.48 726.04 152.98 714.8 131.77 686.87 94.34 658.6 70.93 629.28 58.18 602.62 43 568.78 32.22 536.11 28.52 503.66 28.52 456.84 35.93 423.93 45.2 376.42 68.84 349.18 98.39 329.48 139.65 318.71 205.24 312.33 260.52 308.51 320.2 337.13 308.38"/><g id="cara_completa-2" data-name="cara completa"><path class="cls-4" d="M741,447.09l162,30.59c74.74,6.15,71.38-26.88,58.75-52A75.15,75.15,0,0,0,925,390.77L738,320.08l-5.45-124.46C725.35,75.45,597.06,41.26,597.06,41.26c-62.58-26.77-137.9-8.92-185.41,8.11a125.4,125.4,0,0,0-78.46,83.91c-21.55,76.83-24.68,186.92-24.68,186.92"/><path class="cls-5" d="M574.35,831.48c-204.54,20.63-231.89-35.81-231.89-35.81l-14.25-24.91L312.1,720.23,301,652.44l-3.6-70.81,13.68-261.32c94.44-42.64,348.81-11.59,348.81-11.59,48.21-5.33,81.47,143.82,81.47,143.82l1.16,88.76,30.13-25.49,26.19,7.53L811,535.74l2.67,16.92,1.62,23.41-7.88,16.57-22.71,17.85H744.23c-41,160.5.82,329.23.82,329.23L746.44,970C667.06,925.23,536,955.82,536,955.82c50.18-70.69,48.79-126.66,48.79-126.66Z"/><g id="exterior_cara-2" data-name="exterior cara"><path class="cls-4" d="M584.78,829.16c.69,67.33-53,127.59-53,127.59,130.14-30,217.51,14.6,217.51,14.6s-49.83-247.41-3.94-363.88"/><path class="cls-4" d="M746.32,537.13c-12.4-188.66-8.34-217-8.34-217-399.57-46.35-429.47,0-429.47,0L297.85,550c-4.17,129.09,21.2,198,27.69,213.22a78.84,78.84,0,0,1,2.67,7.42C357,863.81,565.08,835,619.89,824.41"/><path class="cls-4" d="M725.92,604.81c20.75,8,37.09,9.5,49.49,7.88,23.64-2.9,40.67-24.1,39.86-47.86a67.4,67.4,0,0,0-16.45-41.49c-28.4-21.09-60.84,23.3-60.84,23.3"/></g><path class="cls-7" d="M725.92,325.3l-41.13-7.42c8.92,5.45,49.83,94.56,49.83,94.56l-8.7-87.14"/><polygon class="cls-6" points="507.02 444.89 512.81 499.01 519.77 517.66 536.57 545.13 552.56 547.33 565.66 552.66 590.46 549.42 616.99 529.83 626.84 496.34 628 467.25 626.38 442.22 618.38 420.32 601.81 398.88 592.31 390.07 580.37 382.77 565.66 377.68 547.35 374.31 525.91 385.9 516.06 417.19 507.02 444.89"/><polygon class="cls-6" points="320.56 443.61 321.84 492.75 332.03 509.78 348.72 535.63 356.83 543.74 369.93 549.18 394.61 545.82 421.26 526.36 431.12 492.87 432.27 463.78 430.65 438.75 422.65 416.85 406.08 395.41 396.58 386.48 384.64 379.3 371.78 382.77 353.82 387.29 337.36 401.2 329.48 422.41 320.56 443.61"/><path class="cls-4" d="M466.46,635.63c-70.23,5.8-56.44-40.44-56.44-40.44,3.94-21.21,31.29-11.36,31.29-11.36"/><polygon class="cls-7" points="326.47 434.11 320.56 494.25 332.03 511.29 343.62 522.07 367.61 515.58 379.89 503.41 388.7 494.95 390.9 482.9 395.31 472.58 392.41 450.45 385.46 435.73 375.49 422.99 364.02 414.06 345.48 409.08 326.93 420.09 326.47 434.11"/><polygon class="cls-7" points="510.61 418.58 512.81 508.39 523.36 519.29 543.29 523.69 571.45 517.66 579.45 503.87 584.78 493.21 590.46 480.23 591.38 470.85 588.49 448.6 581.53 434 571.68 421.25 560.09 412.21 541.55 407.34 512.81 417.19 510.61 418.58"/><path class="cls-4" d="M557.78,377c-38.94,0-49.49,41.49-49.49,86.68s21.44,90.28,60.5,90.28,60.49-38.48,60.49-83.67S596.83,377,557.78,377Z"/><path class="cls-4" d="M376.42,382.77c30.82,0,55.74,35.58,55.74,79.39s-18.43,83-49.14,83-65.47-27.47-62.23-83C323.34,418.35,345.71,382.77,376.42,382.77Z"/><path class="cls-4" d="M519.53,517.43c27,14,49.26,0,49.26,0,16.45-9.5,22-25.49,23.29-39.86a71.78,71.78,0,0,0-20.51-56.32c-29.9-30.25-58.76-1.74-58.76-1.74"/><path class="cls-4" d="M336.55,521.26a58.33,58.33,0,0,0,21.09-3.13c17-6.61,28.74-22.48,31.87-40.56,6.61-37.66-13.09-55.05-13.09-55.05-18.78-20.51-46.94,0-46.94,0"/><polygon class="cls-6" points="490.45 705.98 510.96 698.91 526.6 691.84 552.33 676.19 566.82 664.61 586.63 644.33 584.89 697.87 579.1 715.6 568.32 734.95 550.71 753.95 525.68 769.83 485.7 782.46 449.89 786.52 423.58 784.55 423.58 716.06 490.45 705.98"/><path class="cls-4" d="M384.76,778.64c239.88,29.08,203.73-139.18,203.73-139.18C512.81,730.66,384.76,709,384.76,709"/><line class="cls-4" x1="418.6" y1="781.07" x2="418.6" y2="712.47"/><line class="cls-4" x1="563.92" y1="737.96" x2="423.93" y2="743.75"/><path class="cls-4" d="M679.34,314.52s61.3,41.14,65.71,201.29"/><path class="cls-4" d="M779.35,580.13c-2.09,3.24-6.49,3.82-10.32,3.94a72.12,72.12,0,0,1-8.69-.24c-2.2-.23-4.75-.58-5.91-2.55a7,7,0,0,1-.58-4,40.15,40.15,0,0,1,2.2-9.74c1.16-3.12,2.79-6.25,5.68-7.76,3.13-1.74,7-1.16,10.32-.12s6.6,2.79,10.08,3.25a5.55,5.55,0,0,0,2.43-.12,7.32,7.32,0,0,0,1.74-1.16,15.54,15.54,0,0,0,3.48-18.42,3.74,3.74,0,0,0-1.39-1.62,5.11,5.11,0,0,0-2.32-.24,48.58,48.58,0,0,0-12.28,1.86,19.14,19.14,0,0,0-10.2,6.72"/><path class="cls-8" d="M807.51,596.7c14.25,35.46-18.31,43.57-18.31,43.57-26.54.93-19.35-47.51-19.35-47.51"/></g><polygon class="cls-9" points="499.49 237.34 490.91 178.59 486.62 163.29 483.96 149.03 477 132.35 468.2 122.73 462.06 114.04 454.06 104.54 449.42 93.06 425.55 86.34 404.69 85.65 386.04 101.17 360.19 150.31 351.04 198.63 351.04 240.93 499.49 237.34"/><g id="ajustar_gorra-2" data-name="ajustar gorra"><path class="cls-4" d="M499.6,237.34C493.69,148.69,464.49,110,440.85,93.06A39.85,39.85,0,0,0,386,101.18c-43.46,56.31-38.48,170.46-38.48,170.46s140.92-12.63,274.18-1a9.47,9.47,0,0,0,7-16.69c-11.71-10-44.15-19.7-129.21-16.57L351,240.93"/></g><path class="cls-11" d="M493.69,232.24,376,234.56l-22.36.69C337.94,143.59,401.91,57.6,401.91,57.6c-4.87,18.66,2.55,36.27,10.32,48.33A64,64,0,0,0,434,126.21c35.58,20.86,58.41,94.91,58.41,94.91Z"/><path class="cls-7" d="M418.14,220.19c-62.12-66.06-18-116.93-22.83-110"/><path class="cls-6" d="M395.42,110v-.23c.12.12-.11-.12.12.35.58.11.23,0,.46,0h0v.11l-.23.93c-.12.7-.23,1.28-.35,2-.11,1.39-.35,2.67-.46,3.94-.23,2.55-.46,5.1-.58,7.53a117.72,117.72,0,0,0-.12,14.26,132.9,132.9,0,0,0,4.06,26.42A238,238,0,0,0,407,191.45c3.48,9,7.65,18.19,11.13,29-10.43-4.17-19.13-11.12-26.43-19.58a78.2,78.2,0,0,1-15.52-30,65.88,65.88,0,0,1,.34-34.53,54.82,54.82,0,0,1,7.3-15.53,37.9,37.9,0,0,1,5.45-6.61c1-.92,2.09-1.85,3.25-2.78a16.24,16.24,0,0,1,1.73-1.27c.35-.23.58-.35.93-.58l.12-.12h.11c.12,0-.11-.23.47,0,.23.47.11.23.11.35l-.23.23-.46.23Z"/><circle class="cls-6" cx="371.67" cy="433.3" r="4.75"/><circle class="cls-6" cx="555.81" cy="419.86" r="4.75"/><circle class="cls-2" cx="484.42" cy="251.59" r="5.33"/><circle class="cls-2" cx="439.57" cy="253.1" r="5.33"/><circle class="cls-2" cx="399.01" cy="253.1" r="5.33"/><circle class="cls-2" cx="363.32" cy="253.1" r="5.33"/><path class="cls-6" d="M582.87,736.34l14.69.74-14.62,1.51a19.37,19.37,0,0,0-17.41,18.33l-.74,14.68L563.29,757A19.36,19.36,0,0,0,545,739.58l-14.68-.74,14.62-1.51A19.4,19.4,0,0,0,562.3,719l.74-14.69,1.5,14.62A19.38,19.38,0,0,0,582.87,736.34Z"/></svg>