<?xml version="1.0" encoding="utf-8"?>
<!-- Generator: Adobe Illustrator 23.0.6, SVG Export Plug-In . SVG Version: 6.00 Build 0)  -->
<svg version="1.1" id="Capa_1" xmlns="http://www.w3.org/2000/svg" xmlns:xlink="http://www.w3.org/1999/xlink" x="0px" y="0px"
	 viewBox="0 0 1080 1080" style="enable-background:new 0 0 1080 1080;" xml:space="preserve">
<style type="text/css">
	.st0{fill:#CF151D;}
	.st1{fill:#821119;}
	.st2{stroke:#000000;stroke-width:4.6091;stroke-miterlimit:10;}
	.st3{fill:none;stroke:#000000;stroke-width:4.6091;stroke-miterlimit:10;}
	.st4{fill:#E9B990;}
	.st5{fill:#FFFFFF;}
	.st6{fill:#42210B;}
	.st7{fill:none;stroke:#FFF800;stroke-width:4.6091;stroke-miterlimit:10;}
	.st8{fill:#1E0E05;}
	.st9{stroke:#000000;stroke-width:2.8295;stroke-miterlimit:10;}
	.st10{fill:#42210B;stroke:#000000;stroke-width:2.8295;stroke-miterlimit:10;}
	.st11{fill:none;stroke:#000000;stroke-width:3.9049;stroke-miterlimit:10;}
	.st12{fill:none;}
</style>
<ellipse transform="matrix(0.9159 -0.4015 0.4015 0.9159 -209.3023 336.4557)" class="st0" cx="698.13" cy="667.62" rx="161.25" ry="204.42"/>
<g>
	<g>
		<g>
			<path d="M804.39,622.6l-24.48-9.56l5.17-50.27l3.91-17.77l79.12,46.03l15.16,16.47l1.81,16.29l-9.2,11.06l-17.4,6.72l-14.99-2.71
				L804.39,622.6z M870.29,626.59l0.63-3.34l-1.07-9.65l-10.62-11.54l-60.5-35.2l-3.81,37.01l14.62,5.7l37.93,15.77l11.72,2.12
				L870.29,626.59z"/>
			<polyline class="st1" points="787.41,608.46 792,563.89 793.76,555.88 863.67,596.54 876.56,610.55 877.99,623.52 876.19,633.15 
				858.83,634.51 845.48,632.1 806.99,616.1 787.41,608.46 			"/>
			<path d="M882.04,631.84l-8.28-4.69c-0.53-0.44-53.35-45.3-84.14-53.68l-6.38-1.74l5.59-26.4l31.96,16.96l22.49,15.54l34.8,21.72
				l2.8,8.28L882.04,631.84z"/>
			<path class="st0" d="M791.48,566.72c32.68,8.89,86.84,55.11,86.84,55.11l-4.05-11.71l-2.02-5.95l-32.81-20.49l-22.29-15.4
				l-23.39-12.41L791.48,566.72z"/>
			<polygon points="609.95,532.31 618.84,497.35 625.74,475.07 635.49,448.17 647.85,431.29 663.02,419.99 685.98,413.48 
				701.11,412.15 721.64,412.69 735.74,415.34 749.73,419.68 763.89,427.29 773.8,435.73 785.26,443.49 796.1,456.52 805.21,475.09 
				808.61,486.11 808.5,499.58 799.43,566.12 782.47,558.46 757.35,552.27 722.62,542.77 689.37,534.76 666.92,530.65 
				632.41,527.62 			"/>
			<polygon class="st0" points="632,520.57 667.86,523.72 690.82,527.9 724.36,535.99 759.02,545.47 784.76,551.82 793.76,555.88 
				801.5,499.07 801.61,487.14 798.68,477.68 790.19,460.36 780.51,448.72 769.56,441.32 759.92,433.11 747.01,426.16 
				734.06,422.15 720.9,419.68 701.32,419.16 687.26,420.39 666.17,426.37 652.87,436.28 641.74,451.5 632.38,477.31 625.59,499.26 
				619.5,523.17 			"/>
			<g id="cara_completa_1_">
				<path class="st2" d="M846.84,639.18l-0.36-0.1l-63.75-24.89l5.09-13.04l63.06,24.63c15.17,4.09,18.65,1.12,19,0.77
					c0.85-0.87,1.34-3.71-0.13-8.84c-1.48-5.21-4.8-9.83-9.33-13.01l-74.27-45.21l7.91-55.44c2.26-18.08-3.5-34.53-17.11-48.88
					c-10.56-11.13-22.1-16.79-22.21-16.84l-0.46-0.22l-0.42-0.28c-21.01-14.07-50.12-13.06-70.85-9.74
					c-14.32,2.29-26.67,11.36-33.04,24.25c-14.02,28.39-23.58,71.88-23.67,72.32l-13.68-2.97c0.4-1.85,10-45.6,24.79-75.55
					c8.37-16.96,24.59-28.87,43.39-31.88c23.09-3.7,55.74-4.66,80.47,11.67c2.55,1.29,14.33,7.6,25.48,19.22
					c16.67,17.37,24,38.36,21.19,60.68l-6.63,46.48l66.58,40.52l0.35,0.22c7.27,5.02,12.6,12.41,14.99,20.78
					c3.51,12.25,0.1,19.02-3.37,22.52c-5.21,5.27-13.67,6.75-25.75,4.49C851.84,640.41,849.42,639.85,846.84,639.18z"/>
				<path class="st3" d="M785.3,607.62l63.41,24.76c29.85,8.18,30.99-5.51,27.8-16.65c-1.98-6.89-6.33-12.87-12.24-16.95
					l-70.51-42.92l7.27-50.93c6.2-49.3-43.22-72.96-43.22-72.96c-23.35-15.63-55.27-14.13-75.85-10.83
					c-16.5,2.65-30.81,13.09-38.22,28.07c-14.58,29.53-24.23,73.94-24.23,73.94"/>
				<path d="M752.83,833.67l-9.67-8.12c-9.46-7.95-23.38-13.69-41.36-17.06c-20.09-3.77-37.97-3.07-38.14-3.06l-18.45,0.8
					l13.29-12.83c14.76-14.24,21.78-27.79,24.97-35.94c-10.94-1.04-21.1-2.44-30.29-4.16c-52.85-9.92-61.51-28.17-62.84-32.48
					l-4.05-11.77l-2.82-22.97l0.67-29.25l4.04-29.77l26.53-109.48l4.15-1c15.53-3.76,39.87-2.57,72.34,3.53
					c34.67,6.51,68.01,16.68,73.16,18.28c0.3,0.04,0.61,0.08,0.9,0.14c11.16,2.09,18.75,14.9,23.23,39.15
					c2.95,15.98,3.49,31.25,3.52,31.9l0.03,0.73l-3.88,22.23l4.53-2.57l15.03,7.57l6.3,9.32l-0.29,9.64l-1.36,11.77l-6.53,8.95
					l-14.18,7.39l-13.38-2.51c-25.35,58.44-21.93,124.66-21.89,125.34l0.04,0.69L752.83,833.67z"/>
				<path class="st4" d="M688.36,750.87c-84.56-7.21-91.35-32.19-91.35-32.19l-3.87-11.22l-2.66-21.74l0.65-28.35l3.94-29.02
					l25.44-104.99c41.58-10.06,142.43,21.89,142.43,21.89c19.94,1.49,22.08,64.54,22.08,64.54l-6.3,36.11l14.18-8.03l10.06,5.06
					l4.01,5.94l-0.21,7.08l-1.12,9.64l-4.48,6.14l-10.58,5.51l-11.57-2.17l-4.85-0.91c-28.89,61.98-24.76,133.65-24.76,133.65
					l-1.74,12.36c-28.77-24.17-84.3-21.76-84.3-21.76c25.75-24.86,29.46-47.69,29.46-47.69L688.36,750.87z"/>
				<g id="exterior_cara_1_">
					<path class="st2" d="M744.45,826.47c-0.29-0.23-30.63-23.19-82.55-21.01l-21.98,0.92l17.4-13.45
						c0.24-0.18,24.27-19,28.59-43.43l13.79,2.45c-2.91,16.43-12.6,30.36-20.88,39.66c29.41,1.67,50.9,10.46,62.99,16.88
						c0.58-29.51,4.36-102.96,27.12-139.2l11.86,7.45c-26.06,41.52-25.06,143.11-25.05,144.13l0.19,14.49L744.45,826.47z"/>
					<path class="st3" d="M692.83,750.73c-4.84,27.38-31.21,47.75-31.21,47.75c55.08-2.31,87.13,22.47,87.13,22.47
						s-1.37-104.16,26.12-147.94"/>
					<path class="st2" d="M641.7,751.29c-34.52-8.27-53.2-22.77-55.53-43.05c-0.09-0.78-0.2-1.69-0.38-2.51
						c-1.78-8.17-6.69-38.91,5.04-91.73l22.28-94.28l1.29-1.36c5.6-5.92,34.5-14.78,181.41,30.84l5.04,2.89l-0.46,5.96
						c-0.27,0.9-4.05,14.5-12.84,87.35l-13.9-1.67c6.11-50.65,9.87-73.26,11.82-83.07c-118.78-36.45-152.29-34.1-160-32.41
						l-21,88.88c-11.38,51.23-6.17,80.32-5.01,85.62c0.32,1.44,0.5,2.84,0.62,3.9c1.98,17.24,25.5,26.4,44.88,31.04
						c27.6,6.62,56.81,6.81,62.39,6.78l0.08,14c-5.16,0.03-29.62-0.13-55.32-4.95C648.67,752.87,645.18,752.13,641.7,751.29z
						 M623.52,528.87L623.52,528.87L623.52,528.87z"/>
					<path class="st3" d="M780.63,644.55c9.34-77.47,13.13-88.68,13.13-88.68c-158.62-49.25-174.26-32.71-174.26-32.71l-21.84,92.45
						c-11.56,52.07-6.46,81.97-5.01,88.64c0.23,1.06,0.37,2.14,0.5,3.21c4.59,39.98,91.2,44.13,114.26,44.02"/>
					<path class="st2" d="M763.5,676.42l7.36-11.91c5.9,3.65,11.35,5.64,16.22,5.94c6.03,0.36,11.5-4.24,12.46-10.48
						c0.94-6.15-1.38-11.22-2.19-12.73c-0.79-0.71-1.64-1.04-2.72-1.08c-4.45-0.17-10.92,4.44-13.35,6.7l-4.78-5.11l4.8,5.1
						l-9.59-10.2c1.19-1.12,11.92-10.9,23.4-10.49c5.02,0.17,9.51,2.25,12.98,6.01l0.4,0.43l0.32,0.49
						c0.67,1.02,6.52,10.37,4.59,22.99c-2.03,13.32-13.96,23.14-27.15,22.34c-1.53-0.09-3.07-0.28-4.63-0.57
						C775.8,682.76,769.72,680.28,763.5,676.42z"/>
					<path class="st3" d="M767.18,670.48c7.82,4.83,14.33,6.66,19.49,6.97c9.8,0.6,18.32-6.7,19.81-16.41
						c1.57-10.33-3.52-18.1-3.52-18.1c-9.91-10.73-26.44,4.82-26.44,4.82"/>
				</g>
				<path d="M778.47,590.76c-4.07-16.11-9.35-34.54-11.19-37.6c0.01,0.01,0.26,0.41,0.8,0.9l5.88-10.12c0.59-1.01,1.8-1.47,2.91-1.1
					l16.77,5.61c1.28,0.43,1.99,1.83,1.55,3.12l-0.44,1.3c-0.47,1.42,0.42,2.93,1.88,3.2l0.27,0.05c1.34,0.25,2.21,1.53,1.96,2.87
					l-5.88,31.34c-0.21,1.14-1.19,1.97-2.35,2.01l-9.71,0.28C779.77,592.66,778.76,591.89,778.47,590.76z"/>
				<polygon points="703.86,643.95 698.18,640.26 689.52,637.44 683.39,621.23 681.72,611.62 683.66,586.85 690.11,575.03 
					697.82,560.59 712.46,555.89 722.46,559.72 729.15,563.58 734.52,568.38 738.48,573.74 744.31,585.18 746.25,596.74 
					744.8,608.4 741.88,621.28 733.86,637.04 717.81,644.71 				"/>
				<polygon class="st5" points="690.53,588.89 688.77,611.3 690.17,619.38 694.89,631.82 701.22,633.89 706.1,637.07 
					716.41,637.63 728.69,631.75 735.24,618.87 737.89,607.19 739.18,596.9 737.59,587.4 732.51,577.44 729.32,573.12 
					725.03,569.28 719.43,566.06 712.26,563.31 702.67,566.38 696.29,578.33 				"/>
				<polygon points="624.71,627.62 617.08,622.68 613.17,616.99 608.05,604.39 604.56,594.89 608.32,571.55 614.27,562.52 
					619.96,553.08 630.68,546.93 639.89,546.41 648.3,545.74 655.37,552.05 659.33,557.41 665.16,568.85 667.1,580.42 
					665.64,592.07 662.72,604.94 654.7,620.7 638.66,628.39 				"/>
				<polygon class="st5" points="614.99,574.15 611.76,594.2 614.58,601.86 619.38,613.65 622.06,617.57 626.95,620.74 
					637.25,621.3 649.54,615.42 656.08,602.55 658.74,590.86 660.03,580.57 658.43,571.07 653.35,561.1 650.16,556.79 
					645.87,552.95 640.37,553.39 632.73,553.82 625.02,558.26 620.19,566.25 				"/>
				<path class="st2" d="M633.53,657.24c-4.26-7.87-1.13-15.69-0.21-17.64c1.98-4.8,5.4-6.85,7.94-7.74
					c6.93-2.4,14.18,1.52,15.57,2.33l-7.08,12.08c-0.83-0.49-2.57-1.12-3.55-1.19l-0.26,0.55c-0.02,0.03-1.24,2.83-0.1,4.94
					c0.7,1.3,3.52,4.45,14.42,5.58l-1.43,13.92c-1.84-0.19-3.6-0.44-5.26-0.75C643.6,667.45,636.87,663.4,633.53,657.24z"/>
				<path class="st3" d="M659.55,663.13c-28.95-2.99-19.82-20.69-19.82-20.69c3.24-8.26,13.57-2.2,13.57-2.2"/>
				<polygon points="615,615.06 608.38,606 603.7,595.2 611.31,569.05 613.34,559.86 628.04,554.47 639.15,559.76 644.66,566.01 
					648.49,573.39 650.65,581.68 649.99,593.93 646.76,598.7 644.47,604.76 638.39,608.78 630.97,613.76 				"/>
				<polygon class="st6" points="618.1,570.79 611.12,594.73 614.49,602.5 618.33,607.76 628.58,606.93 634.49,602.97 
					638.72,600.17 640.5,595.46 643.1,591.6 643.6,582.39 641.91,575.92 638.84,570 634.84,565.46 627.69,562.05 619.35,565.11 				
					"/>
				<polygon points="697.9,630.69 686.8,625.94 680.7,616.65 687.75,573.36 693.22,571.27 708.47,569.05 718.84,573.99 
					724.35,580.24 728.19,587.61 730.34,595.9 729.74,607.05 728.07,612.6 724.11,618.47 720.88,622.76 714.4,630.21 				"/>
				<polygon class="st6" points="694.01,578.47 688.06,615.09 691.49,620.33 699.23,623.64 711.13,623.31 715.44,618.35 
					718.42,614.4 721.67,609.57 722.79,605.84 723.29,596.62 721.61,590.14 718.54,584.23 714.53,579.69 707.38,576.28 695,578.09 
									"/>
				<path class="st2" d="M682.74,595.29c2.15-11.43,5.48-20.34,9.9-26.49c6.29-8.74,14.93-12.37,24.96-10.48
					c20.52,3.85,31.42,30.35,27.46,51.46c-4.51,24.03-20.58,38.39-39.07,34.92C685.36,640.83,678.68,616.91,682.74,595.29z"/>
				<path class="st3" d="M716.31,565.21c-15.82-2.97-23.24,13.04-26.69,31.38c-3.44,18.35,1.83,38.26,17.66,41.24
					c15.82,2.97,27.46-10.98,30.9-29.34C741.62,590.13,732.13,568.18,716.31,565.21z"/>
				<path class="st2" d="M610.97,612.98c-4.05-6.32-8.05-17.16-4.11-32.96c5.52-22.16,20.97-36.1,36.73-33.14
					c16.53,3.1,26.26,22.7,22.15,44.61c-4.41,23.5-18.9,38.44-34.44,35.53C623.12,625.48,615.7,620.36,610.97,612.98z"/>
				<path class="st3" d="M642.3,553.76c12.48,2.34,19.9,18.65,16.56,36.44c-3.34,17.79-13.78,32.28-26.26,29.94
					c-12.48-2.34-24.49-16.17-18.94-38.42C618.04,564.15,629.83,551.41,642.3,553.76z"/>
				<path class="st2" d="M685.75,624.79l8.65-11c6.13,4.82,12.28,3.01,13.08,2.74l0.25-0.09c4.02-1.4,6.66-4.56,8.07-9.66
					c1.76-6.34,0.63-13.14-3.07-18.65c-5.21-7.74-11.56-4.86-14.05-3.26l-3.86-5.84l3.92,5.8l-7.83-11.6
					c0.85-0.57,8.58-5.56,17.99-3.8c0.05,0.01,0.1,0.02,0.14,0.03c4.2,0.82,10.27,3.36,15.31,10.85c6.01,8.91,7.81,19.92,4.95,30.21
					c-2.64,9.51-8.45,16.11-16.79,19.08c-3.07,1.18-8.26,2.09-14.1,1C694.33,629.84,689.94,628.1,685.75,624.79z"/>
				<path class="st3" d="M690.08,619.3c9.89,7.77,19.98,3.75,19.98,3.75c7.42-2.61,10.89-8.66,12.49-14.39
					c2.3-8.3,0.8-17.29-4.01-24.43c-9.82-14.57-23.71-5.18-23.71-5.18"/>
				<path class="st2" d="M613.94,613.68l3.17-13.64c2,0.47,4.61,0.49,5.98,0.25c4.71-0.85,8.81-4.51,10.71-9.58
					c3.76-10.03,0.4-15.82-0.12-16.63l-0.38-0.56c-2.67-4.31-9.83-1.07-10.13-0.94l-2.97-6.34l3.02,6.32l-6.03-12.63
					c6.39-3.05,20.37-5.7,27.84,5.92c3.33,4.55,7.24,15.56,1.91,29.78c-3.63,9.68-11.81,16.74-21.36,18.45
					c-3.08,0.55-7.11,0.48-10.54-0.17C614.65,613.85,614.3,613.77,613.94,613.68z"/>
				<path class="st3" d="M615.53,606.87c2.84,0.66,6.38,0.75,8.79,0.32c7.45-1.34,13.38-6.92,16.04-14.01
					c5.54-14.78-1.12-23.34-1.12-23.34c-6.07-9.77-19.05-3.58-19.05-3.58"/>
				<polygon points="640.17,730.07 622.74,725.47 630.28,685.34 663.52,686.52 671.43,685.35 677.59,683.86 688.42,679.81 
					694.39,676.64 718.35,659.69 709.48,699.96 704.96,708.16 698.16,716.34 688.14,723.77 675.08,728.97 656.33,731.25 				"/>
				<polygon class="st5" points="663.91,693.54 672.77,692.24 679.65,690.57 691.3,686.2 698.07,682.61 707.62,675.86 
					702.85,697.47 699.15,704.2 693.31,711.22 684.71,717.6 673.34,722.13 656.17,724.22 641.33,723.14 630.82,720.36 
					636.05,692.55 				"/>
				<path class="st2" d="M613.4,721.62l4.23-13.35c31.3,9.9,54.41,9.52,68.69-1.14c6.88-5.14,10.69-12.08,12.81-18.27
					c-37.45,19.94-78.78,5.13-80.74,4.41l4.84-13.13c0.47,0.17,47.06,16.7,81.08-11.53l11.1-9.21l0.37,14.42
					c0.03,1.15,0.47,28.31-20.93,44.42c-14.25,10.72-34.27,13.7-59.69,8.93C628.29,725.88,621.04,724.02,613.4,721.62z"/>
				<path class="st3" d="M615.51,714.94c95.08,30.08,93.26-40.95,93.26-40.95c-37.67,31.26-87.96,12.71-87.96,12.71"/>
				
					<rect x="617.52" y="697.63" transform="matrix(0.1845 -0.9828 0.9828 0.1845 -177.4 1195.4534)" class="st2" width="28.3" height="14"/>
				<line class="st3" x1="629.06" y1="718.53" x2="634.28" y2="690.72"/>
				
					<rect x="655.67" y="679.08" transform="matrix(0.1434 -0.9897 0.9897 0.1434 -133.0079 1262.3386)" class="st2" width="14" height="57.85"/>
				<line class="st3" x1="691.29" y1="712.13" x2="634.05" y2="703.82"/>
				<path class="st2" d="M765.41,554.04l0.08,0.08l9.8-9.99c0.99,0.97,24.2,24.64,13.33,92.75l-13.83-2.21
					C784.37,574.66,765.6,554.23,765.41,554.04z"/>
				<path class="st3" d="M770.39,549.11c0,0,21.75,21.33,11.32,86.66"/>
				<path class="st2" d="M780.9,671.28c-4.43-1.2-6.24-3.85-6.96-5.85c-0.98-2.71-0.3-5.13-0.08-5.94c0.54-1.92,1.33-3.76,2.34-5.47
					c1.76-2.98,4.05-4.93,6.79-5.81c0.24-0.08,0.51-0.15,0.78-0.22l-1.93-2.04c2.25-2.11,5.23-3.43,8.64-3.83
					c2.41-0.29,4.65-0.07,6.74,0.17c0.73,0.09,2.66,0.32,4.48,1.78c1.31,1.05,2.24,2.47,2.78,4.23c1.74,5.75-0.74,12.17-5.9,15.25
					c-1.15,0.69-2.28,1.11-3.46,1.26c-1.39,0.2-2.78,0.04-4.26-0.47c-0.17-0.06-0.34-0.13-0.51-0.19l5.39,5.19
					c-2.54,2.65-6.13,3.6-10.66,2.85c-0.3-0.05-0.59-0.1-0.89-0.16C783.09,671.82,781.98,671.56,780.9,671.28z M785.69,661.64
					L785.69,661.64L785.69,661.64z M785.67,659.63l1.6,1.54c-0.04-0.16-0.1-0.33-0.16-0.51c-0.23-0.62-0.53-1.14-0.86-1.55
					C786.05,659.25,785.86,659.42,785.67,659.63z"/>
				<path class="st3" d="M790.72,664.48c-1.09,1.14-2.91,1.06-4.46,0.8c-1.18-0.19-2.35-0.45-3.51-0.76
					c-0.89-0.24-1.88-0.62-2.19-1.48c-0.19-0.54-0.07-1.12,0.08-1.66c0.37-1.33,0.92-2.61,1.62-3.8c0.69-1.16,1.6-2.29,2.89-2.7
					c1.39-0.45,2.91,0.05,4.19,0.75c1.28,0.7,2.46,1.61,3.84,2.08c0.32,0.12,0.66,0.21,1.01,0.16c0.29-0.04,0.56-0.17,0.81-0.33
					c2.39-1.43,3.59-4.57,2.79-7.23c-0.09-0.29-0.21-0.6-0.45-0.79c-0.26-0.2-0.6-0.25-0.92-0.29c-1.7-0.2-3.42-0.37-5.12-0.17
					c-1.69,0.19-3.4,0.8-4.64,1.97"/>
				<path class="st7" d="M800.88,673.36c3.06,15.46-10.76,16.26-10.76,16.26c-10.82-1.62-4.22-20.74-4.22-20.74"/>
			</g>
			<polygon points="634.58,500 639.25,475.15 647.24,454.67 662.98,434.76 675.33,427.89 687.14,430.57 700.14,437.02 
				701.59,444.28 703.73,448.03 705.49,451.91 708.73,457.09 710.72,466.35 710.68,472.77 711.26,479.45 709.95,512.28 			"/>
			<polygon class="st8" points="703.28,504.11 704.25,479.61 703.68,473.06 703.72,467.07 702.15,459.77 699.31,455.22 
				697.5,451.21 694.95,446.77 693.95,441.76 684.77,437.22 676.39,435.31 667.6,440.2 653.37,458.18 646.01,477.08 642.79,494.25 
							"/>
			<g id="ajustar_gorra_1_">
				<path class="st2" d="M632.08,505.43c0.29-2.01,7.32-49.46,30.87-70.46c9.48-8.47,23.79-7.91,32.56,1.25
					c8.76,9.15,18.24,27.24,15.4,61.99c35.48,5.93,44.95,13.06,48.97,18.01c3.01,3.72,3.28,8.89,0.65,12.88
					c-2.62,3.99-7.47,5.81-12.08,4.52c-51.95-14.52-109.54-20.18-110.12-20.23l-7.3-0.7L632.08,505.43z M685.4,445.91
					c-3.53-3.69-9.3-3.9-13.12-0.49c-11.27,10.05-18.24,28.7-22.15,42.93l46.92,7.65C699.22,467.17,692.08,452.89,685.4,445.91z"/>
				<path class="st3" d="M703.28,504.1c4.37-36.44-4.54-54.38-12.83-63.03c-6.12-6.4-16.23-6.77-22.84-0.87
					c-21.91,19.54-28.6,66.23-28.6,66.23s58.15,5.59,111.34,20.46c3.7,1.03,6.53-3.27,4.1-6.25
					C750.46,515.73,738.04,509.3,703.28,504.1l-60.49-9.85"/>
			</g>
			<path class="st9" d="M637.14,498.09l0.09-6.09c0.68-40.9,33.96-72.1,35.37-73.41l11.08,8.12c-2.37,5.03-0.95,10.81,0.67,14.78
				c1.06,2.62,2.88,5.07,5.4,7.25c14.52,12.59,18.44,43.92,18.84,47.45l0.08,0.67l-1.01,12.88l-55.4-9.28L637.14,498.09z"/>
			<path class="st10" d="M701.29,501.57l-47.93-8.03l-9.12-1.43c0.64-38.37,33.13-68.38,33.13-68.38c-3.4,7.22-1.73,14.9,0.52,20.4
				c1.56,3.86,4.15,7.18,7.3,9.91c12.87,11.17,16.47,42.95,16.47,42.95L701.29,501.57z"/>
			<g>
				<path d="M657.13,455.4c2.42-9.59,7.85-15.38,9.56-16.64l9.54,1.06c2.12,2.48,2.58,6.64-0.64,9.78l-9.79-10.01
					c-2.29,2.25-2.82,6.65,0.07,9.64c2.84,2.93,7.33,2.6,9.57,0.44c-0.14,0.13-13.46,13.32,2.03,37.5l-11.79,7.54
					C654.72,477.59,654.98,463.88,657.13,455.4z"/>
				<path class="st5" d="M657.25,481.74c-2.23-4.75-3.77-9.96-4.26-15.38c-0.53-5.41,0.05-11.06,1.82-16.37
					c0.88-2.66,2.03-5.24,3.5-7.68c0.73-1.22,1.52-2.41,2.42-3.56c0.45-0.58,0.93-1.15,1.45-1.71c0.26-0.29,0.53-0.57,0.83-0.86
					l0.48-0.44l0.59-0.49l1.19-0.99l1.9,0.15c3.2,0.26,6.38,0.55,9.57,0.86l1.78,0.17l1.21,1.41c1.95,2.28,3,5.25,2.82,8.3
					c-0.09,1.52-0.51,3.02-1.16,4.35c-0.66,1.33-1.54,2.49-2.5,3.46l-3.29,3.28l-3.35-3.36c-3.3-3.3-6.51-6.69-9.77-10.02l6.59,0.07
					c-0.24,0.17-0.58,0.82-0.59,1.45c-0.03,0.64,0.16,1.18,0.6,1.72c0.43,0.5,0.97,0.8,1.69,0.9c0.7,0.1,1.5-0.16,1.77-0.35
					l20.2-13.94l-14.41,19.97c-0.01,0.02,0.03-0.05-0.04,0.02l-0.14,0.15c-0.1,0.08-0.19,0.21-0.3,0.33
					c-0.21,0.23-0.41,0.48-0.6,0.75c-0.2,0.26-0.4,0.54-0.57,0.83c-0.18,0.29-0.39,0.56-0.54,0.88c-0.32,0.6-0.67,1.21-0.93,1.86
					c-0.13,0.32-0.29,0.64-0.42,0.97l-0.33,1.01c-0.86,2.71-1.21,5.66-1.06,8.67l0.16,2.28c0.12,0.76,0.27,1.52,0.41,2.28l0.2,1.15
					l0.31,1.14l0.63,2.3c0.21,0.77,0.56,1.5,0.82,2.26l0.83,2.28l2.07,4.45l0.74,1.59l-1.23,0.66c-2.24,1.2-4.49,2.24-6.62,3.28
					l-6.06,2.89C662.33,490.82,659.48,486.47,657.25,481.74z M671.4,490.06c1.8-1.48,3.47-2.95,5.17-4.27l-0.49,2.26l-3.02-4.26
					c-0.89-1.51-1.81-3.02-2.62-4.6l-1.1-2.44c-0.18-0.41-0.38-0.81-0.54-1.23l-0.42-1.29c-0.28-0.87-0.57-1.73-0.82-2.61
					l-0.57-2.71c-0.59-3.65-0.67-7.53,0.18-11.33l0.33-1.42c0.13-0.47,0.3-0.93,0.45-1.4c0.29-0.94,0.68-1.86,1.09-2.76
					c0.2-0.46,0.46-0.89,0.69-1.34c0.23-0.45,0.48-0.89,0.77-1.31c0.27-0.44,0.55-0.86,0.87-1.29c0.15-0.22,0.3-0.42,0.5-0.65
					l0.28-0.33c0.07-0.1,0.27-0.3,0.4-0.43l5.79,6.03c-2.32,2.24-5.18,3.07-8,2.99c-2.82-0.07-5.72-1.32-7.73-3.38
					c-2.03-2-3.27-4.97-3.28-7.87c-0.03-2.89,0.93-5.83,3.22-8.16l3.26-3.33l3.34,3.39c3.27,3.33,6.58,6.62,9.82,9.98l-6.64-0.07
					c0.63-0.63,0.87-1.16,0.92-1.72c0.06-0.55-0.12-1.24-0.49-1.72l2.99,1.59c-3.18-0.39-6.35-0.82-9.52-1.26l3.1-0.83
					c-0.04,0.04-0.09,0.08-0.14,0.11l-0.23,0.19c-0.16,0.14-0.34,0.3-0.52,0.47c-0.35,0.35-0.72,0.74-1.07,1.14
					c-0.72,0.8-1.41,1.67-2.04,2.59c-1.29,1.82-2.36,3.84-3.29,5.91c-0.91,2.09-1.61,4.28-2.13,6.53c-0.5,2.26-0.79,4.58-0.9,6.94
					c-0.19,4.72,0.37,9.57,1.6,14.35c1.19,4.79,2.97,9.52,5.1,14.18C667.72,493.13,669.63,491.54,671.4,490.06z"/>
			</g>
			<g>
				<path class="st6" d="M671.57,490.94c-20.17-31.51,1.64-48.81-0.87-46.36"/>
				<path class="st5" d="M670.78,444.38c0.01-0.03,0.02-0.08,0-0.08c0,0.06-0.05-0.08,0,0.14c0.23,0.12,0.11,0.04,0.18,0.05
					c0.01,0,0.01,0,0.01,0.01l-0.02,0.04l-0.15,0.38c-0.11,0.25-0.2,0.51-0.28,0.78c-0.18,0.52-0.35,1.03-0.5,1.54
					c-0.3,1.02-0.59,2.02-0.83,3.01c-0.48,1.97-0.86,3.88-1.11,5.75c-0.53,3.75-0.6,7.37-0.37,11.03c0.25,3.66,0.8,7.38,1.55,11.3
					c0.71,3.94,1.7,7.97,2.31,12.59c-3.95-2.49-6.95-5.97-9.24-9.95c-2.26-3.99-3.74-8.57-4.04-13.34
					c-0.33-4.76,0.59-9.71,2.77-13.98c1.09-2.14,2.48-4.1,4.15-5.76c0.85-0.83,1.74-1.6,2.72-2.25c0.49-0.33,0.99-0.63,1.52-0.89
					c0.27-0.13,0.55-0.25,0.82-0.36c0.14-0.05,0.27-0.1,0.43-0.15l0.06-0.02l0.05-0.01c0.08,0.02-0.03-0.08,0.2,0.06
					c0.05,0.22,0,0.1,0,0.16c-0.05,0.05-0.08,0.05-0.11,0.07l-0.21,0.07L670.78,444.38z"/>
			</g>
			<ellipse transform="matrix(0.1845 -0.9828 0.9828 0.1845 -44.9383 1093.543)" cx="636.49" cy="573.85" rx="8.96" ry="8.96"/>
			
				<ellipse transform="matrix(0.1845 -0.9828 0.9828 0.1845 -44.9383 1093.543)" class="st5" cx="636.49" cy="573.85" rx="1.96" ry="1.96"/>
			<path d="M703.42,580.81c0.91-4.86,5.6-8.06,10.46-7.15c4.86,0.91,8.06,5.6,7.15,10.46c-0.91,4.86-5.6,8.06-10.46,7.15
				C705.71,590.35,702.5,585.66,703.42,580.81z"/>
			
				<ellipse transform="matrix(0.1845 -0.9828 0.9828 0.1845 8.3588 1174.996)" class="st5" cx="712.22" cy="582.46" rx="1.96" ry="1.96"/>
			<g>
				<path d="M666.28,704.49c28.85,4.98,29.25,4.71,35.07-23.98c-4.98,28.85-4.71,29.25,23.98,35.07
					c-28.85-4.98-29.24-4.71-35.07,23.98C695.25,710.72,694.97,710.31,666.28,704.49z"/>
			</g>
			<g>
				
					<ellipse transform="matrix(0.1144 -0.9934 0.9934 0.1144 -89.1514 1320.0775)" class="st5" cx="695.8" cy="710.04" rx="16.39" ry="16.39"/>
			</g>
			<path d="M687.01,507.02c0.94-4.99,5.76-8.29,10.75-7.35c4.99,0.94,8.29,5.76,7.35,10.75c-0.94,4.99-5.76,8.29-10.75,7.35
				S686.07,512.02,687.01,507.02z"/>
			
				<ellipse transform="matrix(0.1845 -0.9828 0.9828 0.1845 67.6498 1098.9768)" class="st1" cx="696.06" cy="508.72" rx="2.21" ry="2.21"/>
			<ellipse transform="matrix(0.1845 -0.9828 0.9828 0.1845 55.4906 1078.7188)" cx="677.77" cy="505.92" rx="9.21" ry="9.21"/>
			
				<ellipse transform="matrix(0.1845 -0.9828 0.9828 0.1845 55.4906 1078.7188)" class="st1" cx="677.77" cy="505.92" rx="2.21" ry="2.21"/>
			<path d="M652.26,501.12c0.94-4.99,5.76-8.29,10.75-7.35c4.99,0.94,8.29,5.76,7.35,10.75c-0.94,4.99-5.76,8.29-10.75,7.35
				C654.62,510.94,651.32,506.11,652.26,501.12z"/>
			
				<ellipse transform="matrix(0.1845 -0.9828 0.9828 0.1845 45.1026 1060.0187)" class="st1" cx="661.31" cy="502.83" rx="2.21" ry="2.21"/>
			<ellipse transform="matrix(0.1845 -0.9828 0.9828 0.1845 35.9675 1043.5739)" cx="646.83" cy="500.11" rx="9.21" ry="9.21"/>
			
				<ellipse transform="matrix(0.1845 -0.9828 0.9828 0.1845 35.9675 1043.5739)" class="st1" cx="646.83" cy="500.11" rx="2.21" ry="2.21"/>
		</g>
		<g>
			<polyline class="st1" points="787.41,608.46 792,563.89 793.76,555.88 863.67,596.54 876.56,610.55 877.99,623.52 876.19,633.15 
				858.83,634.51 845.48,632.1 806.99,616.1 787.41,608.46 			"/>
			<path class="st0" d="M791.48,566.72c32.68,8.89,86.84,55.11,86.84,55.11l-4.05-11.71l-2.02-5.95l-32.81-20.49l-22.29-15.4
				l-23.39-12.41L791.48,566.72z"/>
			<polygon class="st0" points="632,520.57 667.86,523.72 690.82,527.9 724.36,535.99 759.02,545.47 784.76,551.82 793.76,555.88 
				801.5,499.07 801.61,487.14 798.68,477.68 790.19,460.36 780.51,448.72 769.56,441.32 759.92,433.11 747.01,426.16 
				734.06,422.15 720.9,419.68 701.32,419.16 687.26,420.39 666.17,426.37 652.87,436.28 641.74,451.5 632.38,477.31 625.59,499.26 
				619.5,523.17 			"/>
			<g id="cara_completa">
				<path class="st3" d="M785.3,607.62l63.41,24.76c29.85,8.18,30.99-5.51,27.8-16.65c-1.98-6.89-6.33-12.87-12.24-16.95
					l-70.51-42.92l7.27-50.93c6.2-49.3-43.22-72.96-43.22-72.96c-23.35-15.63-55.27-14.13-75.85-10.83
					c-16.5,2.65-30.81,13.09-38.22,28.07c-14.58,29.53-24.23,73.94-24.23,73.94"/>
				<path class="st4" d="M688.36,750.87c-84.56-7.21-91.35-32.19-91.35-32.19l-3.87-11.22l-2.66-21.74l0.65-28.35l3.94-29.02
					l25.44-104.99c41.58-10.06,142.43,21.89,142.43,21.89c19.94,1.49,22.08,64.54,22.08,64.54l-6.3,36.11l14.18-8.03l10.06,5.06
					l4.01,5.94l-0.21,7.08l-1.12,9.64l-4.48,6.14l-10.58,5.51l-11.57-2.17l-4.85-0.91c-28.89,61.98-24.76,133.65-24.76,133.65
					l-1.74,12.36c-28.77-24.17-84.3-21.76-84.3-21.76c25.75-24.86,29.46-47.69,29.46-47.69L688.36,750.87z"/>
				<g id="exterior_cara">
					<path class="st3" d="M692.83,750.73c-4.84,27.38-31.21,47.75-31.21,47.75c55.08-2.31,87.13,22.47,87.13,22.47
						s-1.37-104.16,26.12-147.94"/>
					<path class="st3" d="M780.63,644.55c9.34-77.47,13.13-88.68,13.13-88.68c-158.62-49.25-174.26-32.71-174.26-32.71l-21.84,92.45
						c-11.56,52.07-6.46,81.97-5.01,88.64c0.23,1.06,0.37,2.14,0.5,3.21c4.59,39.98,91.2,44.13,114.26,44.02"/>
					<path class="st3" d="M767.18,670.48c7.82,4.83,14.33,6.66,19.49,6.97c9.8,0.6,18.32-6.7,19.81-16.41
						c1.57-10.33-3.52-18.1-3.52-18.1c-9.91-10.73-26.44,4.82-26.44,4.82"/>
				</g>
				<path class="st6" d="M788.46,557.02l-16.1-6.11c3.21,2.86,13,42.14,13,42.14L788.46,557.02"/>
				<polygon class="st5" points="690.53,588.89 688.77,611.3 690.17,619.38 694.89,631.82 701.22,633.89 706.1,637.07 
					716.41,637.63 728.69,631.75 735.24,618.87 737.89,607.19 739.18,596.9 737.59,587.4 732.51,577.44 729.32,573.12 
					725.03,569.28 719.43,566.06 712.26,563.31 702.67,566.38 696.29,578.33 				"/>
				<polygon class="st5" points="614.99,574.15 611.76,594.2 614.58,601.86 619.38,613.65 622.06,617.57 626.95,620.74 
					637.25,621.3 649.54,615.42 656.08,602.55 658.74,590.86 660.03,580.57 658.43,571.07 653.35,561.1 650.16,556.79 
					645.87,552.95 640.37,553.39 632.73,553.82 625.02,558.26 620.19,566.25 				"/>
				<path class="st3" d="M659.55,663.13c-28.95-2.99-19.82-20.69-19.82-20.69c3.24-8.26,13.57-2.2,13.57-2.2"/>
				<path class="st6" d="M614.52,580.5l4.38-13.25l10.47-9.42l12.93-4.08l5.74,2.25l4.22,4.89l0.23,6.75l-0.7,4.25
					c0,0-0.93,28.01-18.8,29.65c0,0-17.41,2.59-18.1-16.09L614.52,580.5z"/>
				<path class="st6" d="M690.3,589.72l4.38-13.25l10.47-9.42l13.12-2.17l5.03,1.23l4.74,3.99l0.23,6.75l-0.7,4.25
					c0,0,0.57,32.74-17.3,34.38c0,0-18.91-2.14-19.6-20.82L690.3,589.72z"/>
				<circle class="st5" cx="720.4" cy="572.87" r="3.68"/>
				<circle class="st5" cx="647.29" cy="562.34" r="3.68"/>
				<path class="st3" d="M716.31,565.21c-15.82-2.97-23.24,13.04-26.69,31.38c-3.44,18.35,1.83,38.26,17.66,41.24
					c15.82,2.97,27.46-10.98,30.9-29.34C741.62,590.13,732.13,568.18,716.31,565.21z"/>
				<path class="st3" d="M642.3,553.76c12.48,2.34,19.9,18.65,16.56,36.44c-3.34,17.79-13.78,32.28-26.26,29.94
					c-12.48-2.34-24.49-16.17-18.94-38.42C618.04,564.15,629.83,551.41,642.3,553.76z"/>
				<polygon class="st5" points="663.91,693.54 672.77,692.24 679.65,690.57 691.3,686.2 698.07,682.61 707.62,675.86 
					702.85,697.47 699.15,704.2 693.31,711.22 684.71,717.6 673.34,722.13 656.17,724.22 641.33,723.14 630.82,720.36 
					636.05,692.55 				"/>
				<path class="st3" d="M615.51,714.94c95.08,30.08,93.26-40.95,93.26-40.95c-37.67,31.26-87.96,12.71-87.96,12.71"/>
				<line class="st3" x1="629.06" y1="718.53" x2="634.28" y2="690.72"/>
				<line class="st3" x1="691.29" y1="712.13" x2="634.05" y2="703.82"/>
				<path class="st3" d="M770.39,549.11c0,0,21.75,21.33,11.32,86.66"/>
				<path class="st3" d="M790.72,664.48c-1.09,1.14-2.91,1.06-4.46,0.8c-1.18-0.19-2.35-0.45-3.51-0.76
					c-0.89-0.24-1.88-0.62-2.19-1.48c-0.19-0.54-0.07-1.12,0.08-1.66c0.37-1.33,0.92-2.61,1.62-3.8c0.69-1.16,1.6-2.29,2.89-2.7
					c1.39-0.45,2.91,0.05,4.19,0.75c1.28,0.7,2.46,1.61,3.84,2.08c0.32,0.12,0.66,0.21,1.01,0.16c0.29-0.04,0.56-0.17,0.81-0.33
					c2.39-1.43,3.59-4.57,2.79-7.23c-0.09-0.29-0.21-0.6-0.45-0.79c-0.26-0.2-0.6-0.25-0.92-0.29c-1.7-0.2-3.42-0.37-5.12-0.17
					c-1.69,0.19-3.4,0.8-4.64,1.97"/>
				<path class="st7" d="M800.88,673.36c3.06,15.46-10.76,16.26-10.76,16.26c-10.82-1.62-4.22-20.74-4.22-20.74"/>
			</g>
			<polygon class="st8" points="703.28,504.11 704.25,479.61 703.68,473.06 703.72,467.07 702.15,459.77 699.31,455.22 
				697.5,451.21 694.95,446.77 693.95,441.76 684.77,437.22 676.39,435.31 667.6,440.2 653.37,458.18 646.01,477.08 642.79,494.25 
							"/>
			<g id="ajustar_gorra">
				<path class="st3" d="M703.28,504.1c4.37-36.44-4.54-54.38-12.83-63.03c-6.12-6.4-16.23-6.77-22.84-0.87
					c-21.91,19.54-28.6,66.23-28.6,66.23s58.15,5.59,111.34,20.46c3.7,1.03,6.53-3.27,4.1-6.25
					C750.46,515.73,738.04,509.3,703.28,504.1l-60.49-9.85"/>
			</g>
			<path class="st10" d="M701.29,501.57l-47.93-8.03l-9.12-1.43c0.64-38.37,33.13-68.38,33.13-68.38c-3.4,7.22-1.73,14.9,0.52,20.4
				c1.56,3.86,4.15,7.18,7.3,9.91c12.87,11.17,16.47,42.95,16.47,42.95L701.29,501.57z"/>
			<g>
				<path class="st6" d="M671.57,490.94c-20.17-31.51,1.64-48.81-0.87-46.36"/>
				<path class="st5" d="M670.78,444.38c0.01-0.03,0.02-0.08,0-0.08c0,0.06-0.05-0.08,0,0.14c0.23,0.12,0.11,0.04,0.18,0.05
					c0.01,0,0.01,0,0.01,0.01l-0.02,0.04l-0.15,0.38c-0.11,0.25-0.2,0.51-0.28,0.78c-0.18,0.52-0.35,1.03-0.5,1.54
					c-0.3,1.02-0.59,2.02-0.83,3.01c-0.48,1.97-0.86,3.88-1.11,5.75c-0.53,3.75-0.6,7.37-0.37,11.03c0.25,3.66,0.8,7.38,1.55,11.3
					c0.71,3.94,1.7,7.97,2.31,12.59c-3.95-2.49-6.95-5.97-9.24-9.95c-2.26-3.99-3.74-8.57-4.04-13.34
					c-0.33-4.76,0.59-9.71,2.77-13.98c1.09-2.14,2.48-4.1,4.15-5.76c0.85-0.83,1.74-1.6,2.72-2.25c0.49-0.33,0.99-0.63,1.52-0.89
					c0.27-0.13,0.55-0.25,0.82-0.36c0.14-0.05,0.27-0.1,0.43-0.15l0.06-0.02l0.05-0.01c0.08,0.02-0.03-0.08,0.2,0.06
					c0.05,0.22,0,0.1,0,0.16c-0.05,0.05-0.08,0.05-0.11,0.07l-0.21,0.07L670.78,444.38z"/>
			</g>
			
				<ellipse transform="matrix(0.1845 -0.9828 0.9828 0.1845 67.6498 1098.9768)" class="st1" cx="696.06" cy="508.72" rx="2.21" ry="2.21"/>
			
				<ellipse transform="matrix(0.1845 -0.9828 0.9828 0.1845 55.4906 1078.7188)" class="st1" cx="677.77" cy="505.92" rx="2.21" ry="2.21"/>
			
				<ellipse transform="matrix(0.1845 -0.9828 0.9828 0.1845 45.1026 1060.0187)" class="st1" cx="661.31" cy="502.83" rx="2.21" ry="2.21"/>
			
				<ellipse transform="matrix(0.1845 -0.9828 0.9828 0.1845 35.9675 1043.5739)" class="st1" cx="646.83" cy="500.11" rx="2.21" ry="2.21"/>
			<path class="st11" d="M652.49,560.31c-0.62,42.91-19.69,43.99-26.94,40.95c-9.89-4.15-13.86-17.16-8.86-29.05"/>
			<path class="st11" d="M725.83,570.53c5.95,42.5-12.72,46.49-20.36,44.59c-10.41-2.59-16.32-14.83-13.21-27.35"/>
			<path class="st5" d="M699.31,697.97l1.64-6.12l-0.69,6.3c-0.45,4.1,2.16,7.92,6.15,8.99l6.12,1.64l-6.3-0.69
				c-4.11-0.46-7.92,2.16-8.99,6.15l-1.64,6.12l0.69-6.3c0.46-4.11-2.16-7.92-6.15-8.99l-6.12-1.64l6.3,0.69
				C694.43,704.57,698.25,701.96,699.31,697.97z"/>
		</g>
	</g>
</g>
<path id="SVGID_x5F_1_x5F_" class="st12" d="M751.35,861.96c111.91-28.43,110.62-150.92,110.62-150.92"/>
<text><textPath  xlink:href="#SVGID_x5F_1_x5F_" startOffset="27.0386%">
<tspan  class="st5" style="font-family:'Broadway'; font-size:18px;">axelux_ve</tspan></textPath>
</text>
</svg>
